<?xml version="1.0" encoding="UTF-8"?>
<svg version="1.1" viewBox="0 0 2000 2000" width="1280" height="1280" xmlns="http://www.w3.org/2000/svg">
<path transform="translate(282,98)" d="m0 0 22 1 19 4 19 7 13 7 17 12 15 14 27 27 7 5-2-2 1-4 15-4 6-1 25-1v-2l7-5 20-7h4l12-5 9-4h2l3 3 1-5 10-4 18-6 24-6 19-5 10-2 22-1 29-8 16-3 43-1h165l86-1h335l26 1 22 4 31 4 36 9 27 8 21 7 19 8 15 6 16 7 26 12 9 6 10 5 18 11 19 14 17 12 10 9 11 9 8 7 11 8 15 14 25 25 13 17 9 11 10 11 11 14 12 17 11 16 15 26 10 18 12 25 16 40 12 37 12 48 5 32 3 33 2 26 1 25 2 230 2 300v21l-1 24-7 50-11 43-9 32-5 15-7 24-8 22-9 21-13 28-10 16-8 11-11 15-10 16-20 28-11 13-8 10-7 7-9 11-9 10-10 11-7 8-11 11-9 11-13 12-11 9-11 8-18 11-27 13-10 6-11 6-28 14-12 5-15 6-6-1-2 4-10 4-19 7-8 2-10 4-25 6-39 7-45 5-19 2-71 1h-309l-7-4-5 1-5-2-4-2-2-6-2 4-7-2-5-4v-5h-2l-1 4-4-1-7-5-1-2-6-2-11-9-9-8-5-7-5-5-6-10-5-8-1-8-4-2-2-8-2-5-2-6v-72l2-7 4-1-4-2 2-1v-5l2-1 3-5 3-3-2-5h2v-2l5-5 4-8 7-9 14-15 11-9 9-6 5-1 1-3 8-4 2 1 2-5 10-5 4-1 34-2 2-1 12-1 2-1 329-2 20-1 45-6 40-10 28-12 15-6 22-12 14-8 14-11 13-11 8-7 9-10 12-17 10-13 8-16 6-14 7-15 5-19 7-27 5-32v-564l-1-26-2-6-3-19-2-27-6-23-5-22-7-16-1-7-3-2-5-15-6-11-6-9-2-6 1-1-3-1-7-10 4-1v-2l-3-1-8-8-4-6v-3l-10-10v-2l-4-2-27-27 4 5 4 4-1 2-12-12-10-8v-4l-5-1-1-7-2 1 1 5-4-1-12-6-19-10-14-8-20-8-21-7-36-7-21-3-20-1h-369l-209 1 12 11 517 517 8 11 6 14 3 13v18h-1l-2 14-5 12-9 13-679 679-5 6-7 6-1 2h-2v2h-2v2h-2v2h-2v2h-2l-2 4-16 16-8 7-10 7-13 6-10 2v1l-8 1h-11l-16-3-9-3-3-2-4 2-38 38-15 11-14 8-15 6-21 6-14 2h-24l-18-3-16-5-16-7-16-9-11-9-11-10-9-11-10-15-9-19-6-20-3-16v-26l3-18 8-24 9-17 9-13 9-10 7-8 617-617-6-7-362-362-3-1-10 55-2 24v52l1 249v54l-1 19-3 13-6 16-7 17-7 10-9 11-18 18-13 9-17 9-19 7-8 1-7 3-5 1h-42l-5-3-2-1h-8l-13-5-3-2-6-1-5-3v-2l-4-1-9-5-5-4-1-3-8-7-10-10-5-4-5-5-7-9-8-16-7-19-3-11-2-9v-434l2-10 2-6 3-12 3-9 3-12 1-3 1-13 3-9 7-28 2-9h2l2-6 3-2-1-4 2-6 3-7 1-4 2-1v-6l2-5h3l1-4h3v-5l-2-1 1-2h2v-4h3l1-3 4-1-4-1v-2l2-1v-4h2l1-4h2v-2h5v-2l-4-1-1-4h3l2-5v-2h2l1-2 4-1-4-4 2-2 2 1 1-6 3-1-1-4 2-2-2-7-2-4-4-2-37-37-11-14-8-13-7-14-6-19-4-19v-27l3-18 8-24 10-19 10-14 8-9 8-7 11-9 16-10 16-7 17-5 12-2zm154 73m-8 3-5 2v3l5-1 2-1-1-3zm251 207m-4 1m7 0m2 0m3 0v2l3 1 4-2-1-1zm-2 1m0 3m6 0 1 2zm3 1 2 5 2-2-2-3zm-5 2v3h2l2 3h3l-2 4 3 1 1 4-2 2v4l4-1-1-3h2l1 2v3 4h5l1-2-1 3-3 2 1 4 5-1-1-3 6-2v2l-4 2v3h2l1 8 3 1v-3l1 2h2v-3l2 1v-3l4 1-1-7h-5l3-2-4-4-6-5-1-2 2-1-9-9-4 1 1-4-5-1-3-1-2-3zm9 2m1 1m-11 1m-41 1m42 0m13 1m-58 0-3 2 455 455 1-3h-2l-2-5-6-5-6-7-6-5-6-7h-2l-2-4h-2l-2-4h-2l-2-4h-2l-2-4h-2l-2-4h-2l-2-4-350-350-5-6-8-7-11-11-1-2-3-1-6-7-3-3h-3v-2h-2v-2h-2l-2-5-4-2 1-3zm46 2m3 3v2l5 1v-2zm0 4m2 0m19 3m-20 1v3zm21 0m1 1m1 1m-18 2m18 0m-17 2m20 0m-19 1v2l2-1zm11 2m12 1m-27 2m-4 1m8 1m27 0m-24 2m6 0 1 2zm17 0 1 3v-3zm-47 1m4 1m40 1m2 1-2 1 1 4-6-1 1 2 5 1 2-2v-2l3-3zm-42 1m47 0m-43 1m41 0 2 3v-3zm-27 1m26 0m4 1 1 2zm723 0 1 4v-2l2-1zm-767 1 1 2zm4 0m36 0v3l-2 1 4 1 1-4zm7 0m-18 1m16 0m-27 1m12 0m13 0m3 1m2 0 1 2zm-39 1m27 0 1 2zm8 0 2 4v-4zm-40 1m4 0m7 0m14 0m9 0m11 0m-15 1m-25 1m26 0m7 0m8 0m-42 1m5 0m10 0m25 0m721 0m-757 1m28-1-2 1v2h3zm3 1m6 0 1 3zm4 0m719 1m-1261 1m502 0m33 0m8 0m-42 1m4 0 1 2 1-2zm23 0m5 0m8 0m-10 1 1 2zm5 0m6 0 1 3zm4 0m-27 1m-13 1m26 0 1 2zm7 0m8 0m-42 1 1 2zm4 0 1 2 1-2zm32 0-1 2h2zm4 0m-10 1 1 2zm11 0 1 3zm4 0m-40 1v2l2-1zm13 0m28 1m-42 1 1 2zm3 0 2 2 1-2zm29 0m4 0m4 0m1 1 1 4zm4 0m-15 1m-25 1v3l2-3zm2 1 2 2 2-2zm29 0m8 0m-24 1m25 0 1 4zm4 0m-15 1m-25 1m26 0m6 0-1 2 3-1zm-33 1m4 0 1 2 2-2zm36 0m-24 1m25 0 1 4zm4 0m-15 1m-25 1m32 0m-33 1m3 0 2 2 2-2zm37 0m8 0m-16 1 1 2zm9 0v4l2-1zm4 0 1 2 1-2zm-15 1m-25 1m32 0m-33 1 1 2zm3 0 2 2 1-2zm24 0m13 0m8 0m-7 1v4l2-1zm4 0 1 2 1-2zm-28 1m13 0m2 0m-27 1m32 0m-33 1 1 2zm3 0 2 2 1-2zm37 0m4 0m3 0m-15 1 1 2zm9 0m4 0 1 2 1-2zm-27 1m12 0 1 2zm4 0m-29 1m32 0m4 0v2l2-1zm-37 1 1 2zm3 0 2 2 1-2zm38 0 1 2zm3 0m3 0m-15 1 1 2zm4 0m9 0 1 2 1-2zm-27 1m16 0m-29 1m32 0m4 0v2l2-1zm-37 1 1 2zm3 0 2 2 2-2zm14 0m23 0 1 5 2-1-1-3 3-1zm7 0m-15 1 1 2zm13 0m-27 1m12 0m4 0m-29 1m31 0-2 4h3v-2h2v-2zm-32 1 1 2zm3 0 2 2 2-2zm14 0m25-1-2 2 1 4 2-1-1-3 3-1zm5 1m-2 1m-27 1m17 0m-30 1m31 0 4 2-1-2zm10 0m2 0-1 2h2zm-44 1m3 0 1 2 3-1zm14 0m23 0 1 5 2-1-1-4zm7 0m-17 1 1 3 2-1-1-2zm15 0 1 2 1-2zm718 0m-745 1m16 0m-29 1-1 2 3-1zm31 0 1 2-1 2 5-1-2-3zm12 0v3zm-41 1 1 2 3-1zm14 0m23 0 2 2v-2zm7 0m-2 1 1 2 1-2zm-40 2-1 2 6 1 1-2zm25 0m6 0m5 0v2l2-1zm-20 1m18 0m9-1-4 2 1 4 2-1-1-3h3zm3 1m-15 1 1 3zm13 0 1 2 1-2zm-27 1m18-1-2 2 6 2-1-3zm-31 2m25 0m-26 1m4 0v2l3-1zm13 0m27-1-4 2 1 4 2-1-1-3 4-1zm3 1m714 0m-729 1 1 2zm4 0m9 0 1 2 1-2zm-27 1m12 0m4 0 1 2 5 1v-2zm-29 1m-1 1 1 2zm4 0v2l3-1zm13 0m27-1-4 2 1 3-5-1 1 2-3 1 1 2 6-2 2-2-1-3 4-1zm3 1m-17 1 1 3 5-1-3-2zm6 0m9 0 1 2 1-2zm-27 1m-13 1v3l2-3zm43 0-1 2 3-1zm-41 1 1 2 3-1zm14 0m23 0 1 5 2-1-1-4zm7 0m-2 1-1 7-4-4-2 3 1 2-2 1 2 2 3-1 1 2-3 1 3 2 3-1 2 3-4-2 2 4 3 2v-2h3l-2 4h6l1 1-3 1v2h2v2h2l1 2 4 1v3h4l1 2h-2l1 2 5 1-2 1 1 2h1v2h2l1 2h1v2h2l1 2h7l-4 2 1 2 7 1h-2l1 4v-2l4 2v3h3l1 3v-3h2l-1 3 1 1-2 2 2 2 2-1 1-1 1 3-3 1 3 2 3-1 1 2-3-1 2 4h2l2 4 12 12h5l1 5 1-2 4 2-1 2 2 1v4h5l-1 4h5l-1 4h6l1 1h-2l2 4v-2l4 2-1 4 3 3h3l-1 2 2 2 5 1-2 1 1 2 4 1v3h4l-3 2h2l1 2 4 1v3l5-1-2 5h2l2 4h2l2 4h5l-1 4h6v1 5h2l1 2h4l-1 4h5l-3 2h2l1 2h4l-2 3 2 1h7l-4 2 1 2 7 1h-2v2l-2 1 2 2 1-3 6 1v2l-3-1 1 3 2 4 3-2v2l-2 2h2l1 2 3-2 1 3-3 1h2l1 2 3-1-1 1-1 2h2l1 2 5-1-2 5 7 6v-2h3v3l4 2v2l3 2v3h4l-3 2h2l1 2 4 1v3l7 1-4 1v2l5 4h4l-1 4h5v3l6 2-2 4h2v-2l6 1v2l-3-1 1 3 3-1 1 4v-3h2l-1 3 1 2-3 1 3 2 3-1 1 2-3 1 4 2 2 4 13 13h2l1 3 4 4h2l2 4 6 5 2 3h2l1-2 2 2-3 2 4 2 1-2h4l2-2v-7l-2-2-1 5v3h-3l-1-4h-3l2-6v-3l2-2-6-1 2-3-6-1-1-4-3-1-1-3-3-1 2-2-6-1 2-3-6-1 2-3-6-1 2-3-6-1-1-4h-2l-2-4-3-1-1-3-3-1-1-3-3-1 2-2-6-1 2-3-6-1 2-3-6-1-1-4-3-1 2-2-6-1 2-3-6-1-1-4-3-1-1-3-3-1 2-2-6-1 2-3-6-1 2-3-6-1 2-3-6-1 2-3-6-1-1-4-3-1-1-3-3-1-1-3-3-1 2-2-6-1 2-3-6-1 2-3-6-1 2-3-6-1-1-4-3-1-1-3-3-1 2-2-6-1 2-3-6-1 2-3-6-1 2-3-6-1 2-3-6-1 2-3-6-1 2-3-6-1 2-3-6-1 2-3-6-1 2-3-6-1-1-4-3-1 2-2-6-1 2-3-6-1 2-3-6-1 2-3-6-1 2-3-6-1-1-4-3-1 2-2-6-1 2-3-6-1 2-3-6-1 2-3-6-1 2-3-6-1 2-3-6-1 2-3-6-1-1-4-3-1-1-3-3-1-1-3-3-1 2-2-6-1 2-3-6-1 2-3-6-1 2-3-6-1 2-3-6-1 2-3-6-1 2-3-6-1 2-3-6-1 2-3-6-1 2-3-6-1 2-3-6-1 2-3-6-1-1-4-3-1zm-27 1m-13 1v3l2-3zm31 0m-28 1v2l3-1zm13 0m30 0m-18 1m3 0 1 2zm-14 1m12 0 1 2zm-25 1m18 0m-19 1 1 2zm4 0v2l3-1zm13 0m1 2m-13 1m23 0m728 0m-752 1 1 2zm4 0v2l3-1zm13 0m736 0 1 2zm-735 2m736 0m-749 1m23 0 1 2zm727 0v4l3 1-2-5zm-751 1 1 2zm4 0v2l3-1zm13 0m-12 3m-1 1 1 2zm4 0v2l3-1zm13 0m-1 1m-11 2m18 0m-19 1 1 2zm4 0v2l3-1zm13 0m10 0 2 2v-2zm-11 1m-10 2m17 0m-19 1 1 2zm4 0v2l3-1zm13 0m-1 1m2 0 1 2zm-12 2m17 0m-19 1 1 2zm4 0v2l3-1zm13 0m12 1m-11 1m5 1m5 0m-24 1 1 2zm4 0v2l3-1zm13 0m11 1m-10 1m-12 1m22 0m-24 1 1 2zm4 0v2l3-1zm13 0m11 1m-10 1m-12 1m17 0m5 0m-24 1 1 2zm4 0v2l3-1zm13 0m1 2m-12 1m17 0m5 0m-24 1 1 2zm4 0v2l3-1zm13 0m-12 3m23 0m-24 1 1 2zm4 0v2l3-1zm13 0m11 0m704 2 2 2v-2zm-726 1m-2 1 1 2zm4 0v2l3-1zm13 0m11 0m19 0m-29 2m-12 1m24 0m-26 1 1 2zm4 0v2l3-1zm13 0m30 0m-29 2m-12 1m17 0m7 0m-26 1 1 2zm4 0v2l3-1zm13 0m30 0m-18 1m-11 1m12 0 1 2zm-2 1m-24 1 1 2zm4 0v2l3-1zm13 0m1 2m-12 1m22 0m-24 1 1 2zm4 0v2l3-1zm13 0m1 2m-13 1m23 0 1 2zm-24 1 1 2zm4 0 1 2 2-2zm13 0m-12 3m-1 1 1 2zm4 0v2l3-1zm13 0m-11 3m-2 1 1 2zm4 0v2l3-1zm13 0m-11 3m17 0m-19 1 1 2zm4 0v2l3-1zm12 1m-10 2m17 0m-19 1 1 2zm4 0v2l3-1zm24 3m-24 1 1 2zm4 0v2l3-1zm24 0 1 2zm19 0m-17 2 1 2zm-24 1m-2 1 1 2zm4 0 1 2 2-2zm13 0m12 1m-11 1m12 0 1 2zm-24 1m17 0m5 0m-24 1 1 2zm4 0v2l3-1zm13 0m1 2m10 1 1 2zm-24 1 1 2zm4 0v2l3-1zm13 0m11 1m0 2m-24 1 1 2zm4 0 1 2 2-2zm13 0m11 0 1 2zm-22 3m-2 1 1 2zm4 0 1 2 2-2zm13 0m11 0m-22 3m24 0m-26 1 1 2zm4 0v2l3-1zm13 0m30 0m-29 1 1 2zm9 0m-4 2m7 0m-26 1 1 2zm4 0v2l3-1zm13 0m1 2m10 1m-24 1 1 2zm4 0v2l3-1zm13 0m1 2m-13 1m23 0m-24 1 1 2zm4 0v2l3-1zm13 0m12 1m-11 1m-13 1m-1 1 1 2zm4 0 1 2 2-2zm13 0m12 1m-11 1m-13 1m18 0m5 0m-24 1 1 2zm4 0 1 2 2-2zm13 0m1 2m-13 1m23 0 1 2zm-24 1 1 2zm4 0v2l3-1zm13 0m11 0v2l2-1zm-23 3m23 0m-24 1 1 2zm4 0 1 2 2-2zm13 0m11 0v2l2-1zm-22 3m22 0m-24 1 1 2zm4 0 1 2 2-2zm13 0m-11 3m17 0m5 0m-24 1 1 2zm4 0 1 2 2-2zm13 0m-11 3m17 0m5 0m-24 1 1 2zm4 0v2l3-1zm24 0 1 2zm-22 3m-2 1 1 2zm4 0 1 2 2-2zm24 0 1 2zm19 0m-41 3m24 0m-26 1 1 2zm4 0 1 2 2-2zm13 0m30 0m-29 2m5 1m5 0m-24 1 1 2zm4 0v2l3-1zm13 0m11 1m0 2m-24 1 1 2zm4 0 1 2 2-2zm13 0m-11 3m22 0m-24 1 1 2zm4 0 1 2 2-2zm13 0m11 1m0 2m-24 1 1 2zm4 0 1 2 2-2zm13 0m11 0 1 2zm-22 3m-2 1 1 2zm4 0 1 2 2-2zm13 0m11 0m19 0m-20 1m-22 2m-1 1 1 2zm4 0v2l3-1zm13 0m30 0m-29 1 1 2zm5 2m5 0m2 0m-26 1 1 2zm4 0v2l3-1zm13 0m30 0m-20 1m-9 1m10 1m-24 1 1 2zm4 0v2l3-1zm13 0m1 2m-13 1m-1 1 1 2zm4 0 1 2 2-2zm13 0m1 2m-13 1m23 0 1 2zm-24 1 1 2zm4 0 1 2 2-2zm13 0m-12 3m23 0 1 2zm-24 1 1 2zm4 0 1 2 2-2zm13 0m11 0 1 2zm-22 3m-2 1 1 2zm4 0 1 2 2-2zm13 0m-11 3m-2 1 1 2zm4 0 1 2 2-2zm43 0m-17 2 1 2zm-24 1m-2 1 1 2zm4 0 1 2 2-2zm24 0 1 2zm19 0m-17 2 1 2zm-24 1m17 0m-19 1 1 2zm4 0v2l3-1zm13 0m12 1m-23 2m17 0m5 0m-24 1 1 2zm4 0 1 2 2-2zm13 0m11 3m-24 1 1 2zm4 0 1 2 2-2zm13 0m11 0m19 0m-43 4 1 2zm4 0 1 2 2-2zm13 0m12 1m-6 2m-19 1 1 2zm4 0 1 2 2-2zm13 0m1 2m10 1m-24 1 1 2zm4 0v2l3-1zm13 0m11 1m0 2m-24 1 1 2zm4 0 1 2 2-2zm13 0m11 0m19 0m-41 3m24 0m-26 1 1 2zm4 0 1 2 2-2zm13 0m11 0m19 0m-20 1m3 2m-26 1 1 2zm4 0 1 2 2-2zm13 0m30 0m-29 2m12 1m-26 1 1 2zm4 0v2l3-1zm13 0m30 0m-18 1m-11 1m12 0 1 2zm-2 1m-24 1 1 2zm4 0 2 2 1-2zm13 0m1 2m10 1m-24 1 1 2zm4 0m13 0m-12 3m23 0 1 2zm-24 1 1 2zm4 0m0 3 1 2 2-2zm4 1m12 1m7 2m-19 1m4 0m43 0m-31 1m7 2m-19 1m4 0m2 0m41 0m-24 3m5 0m-24 1m4 0m2 0m-2 3 1 2zm19 0m5 0m-20 1m0 3 1 2zm24 0 1 2zm20 0 1 4h2l-1-4zm-40 1m43 0m-43 4m4 0m36 0 1 5 2-4zm7 0m2 3m-45 1m4 0m40 0m3 0m-2 1-1 4 1 3-5-1-4 3 4 2 1-2h4l2-2v-7zm-17 2 1 2zm-24 1m4 0m40 0m3 0m-2 1-1 7-4-1-1 3 6 1v-2l2-1v-7zm-17 2 1 2zm21 0m-45 1m4 0m40 0m3 0m-2 1-1 8h-2l1 2 4-3v-3l3-1-3-3zm-22 2m-19 1m4 0m24 0m19 0m-2 1 1 3 1-3zm-16 1 4 4-2-4zm-6 1m14 0-1 2 3-1zm12 0m-45 1m4 0m36 0-1 6 4-2-1-4zm4 0m3 0m-16 1m14 0-1 7-1 3 1 2 4-1 1 5h2l1 4h2v2l5 2v4h3l1-6-5-1 1-5h-3v2h-3v-2h2v-4h2v2h2v-2l2-1-7-1-2 1v2l-3 1v-2l2-1v-3l4 1 2-2-7-1-2 1v2l-3 1v-2l2-1v-7zm-15 1 1 3 2-1zm6 1-1 3 4-2zm-32 1m4 0m40 0m3 0m-2 1 1 2 1-2zm-15 1m4 0m-3 1 1 2zm5 0v2l4-2zm-32 1m17 1m13 0 1 4 1-3zm-7 2m9 2 3 2v-2zm-1 2m4 0m17 0-1 2 3-1zm-13 1m16 0m-19 1m17 0v2h2v-2zm-16 1 2 1 1 2v-2l2-1zm-36 1m34 0 1 2zm7 0m14 0v3l1 5-2 2v4l5 1v3h3l1 2h-2v2l6-1v5l4-1-2 5 6-1-1-7h2v-2h-2v-2l-4-1-4 2v-5l3-1-3-3-2 1 1 2-3-2-1-7h-3v-2l2-1zm-54 1m1 1m50 0m-49 1m30 0m10 0-3 4 2 1v-2h2zm-39 1m30 0 1 2zm-29 1m33 0m25 0m-57 1m1 1m1 1m36 0m19 0 1 2 1-2zm-54 1m10 0m48 0m-57 1m33 0m3 0 1 2zm-35 1 1 3v-3zm38 0-2 3 4-1zm-5 1m1 1m26 0m-58 1m55 0m-54 1m31 0m8 0m4 0m-42 1m29 0m10 0 1 2zm18 0m3 1m-59 1m36 0 1 2 1-2zm-35 1m32 0 1 2zm-31 1m40 0-2 4 4-4zm21 1m-60 1 2 2v-2zm57 0v2h2v-2zm-55 2 2 4v-3zm41 0 1 2zm18 0m-22 1m17 0v9l3-1 1-2-1 5-2 4h2v-2l5-1-1-6 2-1-1-2-5 1-2-4zm3 0m5 0m-14 1m11 0v2h2v-2zm-56 2 1 2zm34 0 1 2zm3 0 1 2 2-1zm5 0-1 2 3-1zm21 1m-62 1 2 5 3 4v-2l2-1-4-2-2-4zm28 0 1 2zm11 0m9 0m11 0 1 2 1-2zm-24 1m2 1m8 0 1 2zm3 1m11 0-2 7 1 2 4-2h3l1-3h-5zm-17 1m10 0m11 0m-22 2m8 0-1 4 2-4zm-12 1m8 0m-40 2m39 0m9 1m9 1 1 2zm7 0m-2 0-2 2h2l-1 6 3 2 1-3-2-1 1-4zm5 1m-63 1m46 0m-47 1m41 0 1 2zm4 0 1 2zm8 0 1 2 3-1zm15 0m-34 1m3 0m14 0v3h2v-3zm14-1-4 2 3 3 2-2zm-64 3m43 0m27 1m-19 1m3 0v3l2-1zm9 0m3 0-1 2-6 1v1h6l2 4v-3l3-1-2-2v-2zm-26 1m21 0m-58 1m41 0m-1 1m5 0 1 2 1-2zm4 0 1 2zm4 0 1 2zm18 1-1 5 2 1 1-5zm3 0m-42 1m15 0 1 3 1-3zm12 0v2h2v-2zm-14 1m9 0 1 2zm3 1-2 4h3l1-4zm2 1m7 0-2 2 2 2 2 1v-2l2-1-1-2zm-6 3m4 0m15 0m-30 1m27-1-5 1 4 3 2-1v-3zm-18 2v3l3-1-1-2zm7 0 1 2zm-60 1m43 0m22 0v3h5l-3-3zm9 0v2l-2 1 1 2-4 1 2 1 2-1-2 7v2l-1 3 3-1v-2h4v-2h2l1-6-1-3h-2l-2-4zm2 0m-34 3 2 2 1-2zm14 0m7 0 1 2zm1 2 1 2 2-2zm-16 2-1 2h2zm9 0 1 2zm3 0 1 2zm6 0 1 3 2-1zm5 0m-7 2 1 2zm18 0-3 4v2 1l-3 1-1 3 5-1v2l-4 2 3 1v5l-2 1-1-3-2 6h3l-1 5 2 3h-2v-2l-3 1 1 2-2 1 1 5-5 2 1 4 1-3v4l-5 2h-4l-2 3-4 2 1 2-3-1 1 4 4-1 2-1-3 3h-4l-1-2h-2l-1 3h-5v2l3 2v3h-2l1-3h-2l-1 4h-3l-1 6h5l-2 2-4 2-6 2-1 6-4 2v2l-4 2 2 2 2-1-2 4-1 3h-2v3l-3 1-3 6v2h-2v2l-5 1v6l-4 2 1 4-4 2-1 2v-2h-2l-2 7-3 1v2l-4 2-1 5-3-1v3l-4 1v3l-4 1v3l-4 1v3l-4 1v3l-4 1v3l-4 1v3l-4 1v3l-4 1v3l-4 1v3l-4 1v3l-4 1v3l-4 1v3l-4 1v3l-4 1v3l-4 1v3l-4 1v3l-4 1v3l-4 1v3l-4 1v3l-4 1v3l-4 1v3l-4 1v3l-4 1v3l-4 1v3l-4 1v3l-4 1v3l-4 1v3l-4 1v3l-4 1v3l-4 1v3l-4 1v3l-4 1v3l-4 1v3l-4 1v3l-4 1v3l-4 1v3l-4 1v3l-4 1v3l-4 1v3l-4 1v3l-4 1v3l-4 1v3l-4 1v3l-4 1v3l-4 1v3l-4 1v3l-4 1v3l-4 1v3l-4 1v3l-4 1v3l-4 1v3l-4 1v3l-4 1v3l-4 1v3l-4 1v3l-4 1v3l-4 1v3l-4 1v3l-4 1v3l-4 1v3l-4 1v3l-4 1v3l-4 1v3l-4 1v3l-4 1v3l-4 1v3l-4 1v3l-4 1v3l-4 1v3l-4 1v3l-4 1v3l-4 1v3l-4 1v3l-4 1v3l-4 1v3l-4 1v3l-4 1v3l-4 1v3l-4 1v3l-4 1v3l-4 1v3l-4 1v3l-4 1v3l-4 1v3l-4 1v3l-4 1v3l-4 1v3l-4 1v3l-4 1v3l-4 1v3l-4 1v3l-4 1v3l-4 1v3l-4 1v3l-4 1v3l-4 1v3l-4 1v3l-4 1v3l-4 1v3l-4 1v3l-4 1v3l-4 1v3l-4 1v3l-4 1v3l-4 1v3l-4 1v3l-4 1v3l-4 1v3l-4 1v3l-4 1v3l-4 1v3l-4 1v3l-4 1v3l-4 1v3l-4 1v3l-4 1v3l-4 1v3l-4 1v3l-4 1v3l-4 1v3l-4 1v3l-4 1v3l-4 1v3l-4 1v3l-4 1v3l-4 1v3l-4 1v3l-4 1v3l-4 1v3l-4 1v3l-4 1v3l-4 1v3l-4 1v3l-4 1v3l-4 1v3l-4 1v3l-4 1v3l-4 1v3l-4 1v3l-4 1v3l-4 1v3l-4 1v3l-4 1v3l-4 1v3l-4 1v3l-4 1v3l-4 1v3l-4 1v3l-4 1v3l-4 1v3l-4 1v3l-4 1v3l-4 1v3l-4 1v3l-4 1v3l-4 1v3l-4 1v3l-4 1v3l-4 1-4 4v3l-3-1-2 3h-2l-1 2-3-1v2h-2l1 3-2 1-1-3h-2l-1-2v2h-2v2h-2v2l-5 1v2l-10-2-5 4v3l-4 2-1 2h-2l-1 4 5 2 2-1v2l-3 1 10 4 6-2h2v2l7-2 4-2-1-2 5 1 4-3h3l3-2v-2l4-1 3-1v-2l5-2 7-8 4-5 4-4v-1l4-2 8-8 6-5 6-7 6-5 6-7 6-5 4-4v-2l4-1v-3l4-1v-3l4-1v-3l4-1v-3l4-1v-3l4-1v-3l4-1v-3l4-1 7-8 5-4 7-8 5-4 7-8 5-4 7-8 5-4 7-8 5-4 7-8 5-4 7-8 5-4 7-8 5-4 7-8 5-4 7-8 5-4 7-8 5-4 7-8 5-4 7-8 5-4 7-8 5-4 7-8 5-4 7-8 5-4 7-8 5-4 7-8 5-4 7-8 5-4 7-8 5-4 7-8 5-4 7-8 5-4 7-8 5-4 7-8 5-4 7-8 5-4 7-8 5-4 7-8 5-4 7-8 5-4 7-8 5-4 7-8 5-4 7-8 5-4 7-8 5-4 7-8 5-4 7-8 5-4 7-8 5-4 7-8 5-4 7-8 5-4 7-8 5-4 7-8 5-4 7-8 5-4 7-8 5-4 7-8 5-4 7-8 5-4 5-6 27-27 6-7 6-5 6-7 6-5 6-7 6-5 6-7 6-5 5-6 1-2h2l2-4h2l2-4h2l2-4h2l2-4h2l6-7 4-4 4-7 6-6 1-4 3-5-1-3h2l1-7 1-3v-2h-2v-2l3-1v-2h-2l2-4-1-5-2-7-2-1 1-6-4-1 1-5-3-3v2h-2l1-6h-2zm-27 2-1 2 3-1zm8 0m4 3m-2 1m3 0m9 0m-38 1m20 0m5 2 1 2zm10 0m-40 1 2 2v-2zm27 1 1 2zm4 0m3 0m23 0m-36 1m16 0m2 0 2 2v-2zm-24 2m14 0v2l3 1v-2zm8 0 4 4 1-3zm-26 1m32 1 1 2zm-11 1 2 4-1-4zm6 1v2l2-1zm-26 1m-11 1m19 0m10 0m28 0m-26 1m7 0m-19 1v2l2-1zm16 1m-6 1m2 0v6l3-2 1-2-1-2zm-12 2m4 0m2 0 1 2zm2 0m-9 1m-6 1m25 0m2 0m-21 1v2h2v-2zm-19 1 2 2v-2zm13 0m24 0v3l2-1zm-11 1m6 0m-11 0-2 2h3zm3 1m3 1m8 0-1 2 3-1zm-62 1 1 2zm36 0 1 2zm22 0-1 2h2zm-23 2 1 2zm17 0m-1 1-1 2h2zm7 0m-17 1 1 3zm2 0m17 0 1 2zm-60 1m44 0m-9 2 4 1zm12 0v3l4-1h-2v-2zm-47 1 1 2zm27 0 2 2v-2zm18 1m-9 1m10 0m13-3v3h-4v3l4-1 1-5zm-17 4m-42 1 1 2zm27 0m14 0m9 0m-5 1 1 2 1-2zm44 1m-40 1m-11 1 1 2 1-2zm10 0m-13 1m8 0 1 2zm46 0m-59 1-1 2h2zm7 1m5 0m-6 1v3l4-1zm-10 1 2 2v-2zm-30 3 1 3zm45 0m-21 1m15 1m-2 1m-36 1m30 0v2l4-1zm-32 1m-2 1m38 0m-7 2 1 2zm9 0m-8 3m4 0m50 0m-59 1m11 0m-2 2 1 3zm-4 2v5h2v-2h2l-1-3zm-25 1m30 0m-1 2m-36 1m27 0 1 2zm-5 4 2 2v-2zm7 0m0 2-1 2h2zm41 7m-80 1m33 3-1 2h2zm43 0m-75 3m71 1m-75 1m31 0-2 2h3zm-31 2m71 1m-75 1-1 3h2l1-3zm2 2m31 0m-6 2 1 2zm5 0m-36 2-1 5 3-3v-2zm32 2m-36 3-2 4h3v-4zm-3 4m-1 1-1 4 3-1-1-3zm32 0m3 0m-5 3 1 5h2v-5zm-33 1m-1 1v3l2-2zm30 2m2 0m-35 1-2 3h3v-3zm2 0m31 2m-37 2m2 0m32 0m-35 1-2 3-3 2v2l-2 1 3 1 2-4 4-2-1-3zm34 1m-2 1m0 2 1 2zm-2 1m-3 2m-35 1-2 4h3v-4zm34 1m-38 3-2 4h3v-4zm36 0 1 2zm-40 4-2 4h3l2-3zm36 1m-40 3-5 5v4l7-6 1-2zm32 5m-40 3-2 4h3l2-3zm36 1m-40 3-51 51 3 2 51-51zm36 1m-26 1m22 3m-4 4m-915 1m889 0m22 3m-4 4m-26 1m22 3m-26 1m22 3m-26 1m22 3m-26 1m22 3m-26 1m20 3m2 0m-26 1m20 3m2 0m-26 1m20 3m2 0m-26 1m20 3m2 0m-26 1m-14 2-15 15 3 2 14-14-1-3zm34 1m2 0m-26 1m22 3m-26 1m20 3m2 0m-26 1m20 3m2 0m-26 1m-14 2-35 35 3 2 34-34-1-3zm34 1m2 0m-26 1m20 3m-24 1m20 3m2 0m-6 4m2 0m-6 4m-24 1m20 3m-4 4m-24 1m20 3m-24 1m20 3m-24 1m-14 2-3 4 3 1 2-4zm34 1m-24 1m-14 2-3 4 3 1 2-4zm34 1m-24 1m-14 2-3 4 3 1 2-4zm34 1m-24 1m-14 2-3 4 3 1 2-4zm34 1m-24 1m-14 2-3 4 3 1 2-4zm34 1m2 0m-40 3-3 4 3 1 2-4zm34 1m-24 1m-14 2-3 4 3 1 2-4zm34 1m2 0m-40 3-3 4 3 1 2-4zm34 1m2 0m-40 3-31 31 3 2 30-30-1-3zm34 1m-4 4m2 0m-6 4m-4 4m-4 4m-4 4m-24 1m20 3m-24 1m20 3m-24 1m-14 2-3 4 3 1 2-4zm34 1m-24 1m-14 2-3 4 3 1 2-4zm34 1m2 0m-26 1m-14 2-3 4 3 1 2-4zm34 1m2 0m-26 1m-14 2-3 4 3 1 2-4zm34 1m-24 1m-14 2-47 47 3 2 46-46-1-3zm34 1m-24 1m20 3m2 0m-26 1m20 3m2 0m-26 1m20 3m-24 1m20 3m2 0m-6 4m-4 4m-24 1m20 3m-24 1m20 3m-24 1m20 3m-24 1m20 3m34 0m-58 1m20 3m34 0m-58 1m26 0m-40 2-3 4 3 1 2-4zm34 1m34 0m-58 1m-14 2-3 4 3 1 2-4zm34 1m34 0m-58 1m-14 2-3 4 3 1 2-4zm34 1m34 0m-58 1m-14 2-3 4 3 1 2-4zm34 1m34 0m-58 1m-14 2-51 51 3 2 2-4 4-2 44-44-1-3zm34 1m34 0m-58 1m20 3m34 0m-58 1m20 3m34 0m-58 1m20 3m34 0m-58 1m20 3m34 0m-58 1m20 3m34 0m-58 1m20 3m34 0m-38 4m34 0m-58 1m20 3m34 0m-58 1m20 3m34 0m-38 4m34 0m-58 1m20 3m34 0m-58 1m20 3m-24 1m-14 2-3 4 3 1 2-4zm34 1m-24 1m-14 2-3 4 3 1 2-4zm34 1m-24 1m-14 2-7 7 3 2 2-4 4-2-1-3zm34 1m-24 1m20 3m-24 1m-14 2-3 4 3 1 2-4zm34 1m-24 1m-14 2-3 4 3 1 2-4zm34 1m-24 1m-14 2-39 39 3 2 38-38-1-3zm34 1m-24 1m20 3m-24 1m20 3m-4 4m-4 4m-24 1m20 3m-24 1m20 3m-24 1m20 3m-24 1m20 3m2 0m-26 1m20 3m2 0m-26 1m-14 2-3 4 3 1 2-4zm34 1m2 0m-26 1m-14 2-3 4 3 1 2-4zm34 1m2 0m-26 1m-14 2-19 19 3 2 6-6v-2l4-2v-2l4-2v-2l4-2-1-3zm34 1m2 0m-26 1m20 3m2 0m-26 1m20 3m2 0m-26 1m20 3m2 0m-26 1m20 3m2 0m-26 1m-14 2-43 43 3 2 2-4 4-2 36-36-1-3zm34 1m2 0m-26 1m20 3m2 0m-26 1m20 3m2 0m-26 1m20 3m2 0m-6 4m2 0m-26 1m20 3m2 0m-26 1m20 3m2 0m-26 1m20 3m2 0m-26 1m20 3m2 0 1 2zm-26 1m20 3m-24 1m20 3m-24 1m-14 2-7 7 3 2 6-6-1-3zm34 1m2 0m-26 1m20 3m-24 1m-14 2-198 198 2 2h3 2v2h4l4-4 4-8-3-1v2l-2 1 2-4 5-6 3-2v-2l5-2 6-7 5-3 1-4 3-1 1-3h2v-2l2-1 5-5 6-7 6-5 7-8 127-127-1-3zm34 1m-24 1m20 3m239 0m-263 1m20 3m-24 1m20 3m-24 1m20 3m-24 1m20 3m-24 1m20 3m-4 4m-4 4m-24 1m20 3m-4 4m-24 1m20 3m-24 1m20 3m-24 1m20 3m34 0m-58 1m20 3m34 0m-58 1m20 3m34 0m-58 1m20 3m-24 1m20 3m-24 1m20 3m-24 1m20 3m-24 1m20 3m-24 1m20 3m-24 1m20 3m-24 1m20 3m-24 1m20 3m-24 1m20 3m-24 1m20 3m-24 1m20 3m-24 1m20 3m-24 1m20 3m-24 1m20 3m-24 1m10 1m10 2m-24 1m10 1m-14 1m24 1m-24 1m10 1m-14 1m24 1m-24 1m10 1m-14 1m24 1m2 0 1 2zm-26 1m10 1m-14 1m24 1m-24 1m26 0m-16 1m-14 1m-1 1v2l2-1zm25 0m2 0 1 2zm-16 2m-14 1v3zm24 1m2 0 1 2zm-16 2m-14 1-1 3 3-1zm24 1m2 1m-16 1m-14 1-1 3h2l1-3zm24 1m-6 1m8 0m-30 2-1 3 3-1v-2zm19 0m5 1m-6 1m4 0m4 0m-23 1m7 0m-14 1-1 3 3-1v-2zm24 1m-6 1m8 0m-16 1m-14 1-1 3 4-2zm19 0m-24 1m29 0m-6 1m8 0m-23 1m12 0 1 2zm-20 1v3l3-1v-2zm25 1m-6 1m4 0 1 2zm-19 1m12 0 1 2zm-19 1-1 3 3-1v-2zm24 1m3 0m-23 1v3zm10 0m4 0m4 0 1 2zm-12 1m5 0 1 2zm-20 1 1 3 2-1v-2zm25 1m-28 1m18 0m4 0m-15 1v2h2v-2zm7 0m-15 1-3 3h5l2-3zm15 2m-11 1v2h2v-2zm7 0m-15 1v2l3-1zm11 0m-11 3m-1 2m-20 7m1 1m62 0m-52 4m-13 1v2h2v-2zm53 1m-50 1m18 3-1 2 4-1z" fill="#FDFDFD"/>
<path transform="translate(687,379)" d="m0 0h7l9 7 522 522 8 11 6 14 3 13v18h-1l-2 14-5 12-9 13-679 679-5 6-7 6-1 2h-2v2h-2v2h-2v2h-2v2h-2l-2 4-16 16-8 7-10 7-13 6-10 2v1l-8 1h-11l-16-3-9-3-3-2 2-5 4-1v-2l5-1 3 2v2l5-3 3-1-1-3 3-3 1-2-2-1-1 5-3-2 4-7 3-1 2-3 6-5h2l2-4h2l2-4h2l2-4h2v-2l4-2v-2h2l1-4 6-5 6-7h2l2-4h2l2-4h2l2-4 127-127v-3l4-1 4-4v-3l4-1 40-40v-3l4-1 5-6 7-6 4-4v-3l4-1v-3l4-1v-3l4-1 36-36v-3l4-1v-3l4-1v-3l4-1 4-4v-3l4-1v-3l4-1v-3l4-1 48-48v-3l4-1v-3l4-1v-3l4-1v-3l4-1v-3l4-1 44-44v-3l4-1v-3l4-1v-3l4-1v-3l4-1v-3l4-1 28-28v-3l4-1v-3l4-1v-3l4-1v-3l4-1v-3l4-1v-3l4-1v-3l4-1v-3l4-1v-3l4-1 32-32v-3l4-1 12-12v-3l4-1 68-68 1-4h3v-3l4-1 4-4v-5h3l5-5 1-4 1 2 2-1 1-4 3-1-1-4 4-2v2l2-4-2-1 3-3 2 1-1-5 8-15 8-24 3-15v-30l-4-20-5-16-6-13 2-5-5-5-5-7v-2l-3 1-1-4h-2l-1-4-9-10-5-5v-3h-2l-2-5-4-2v-2l-3-1-5-6-7-6-5-6-6-5-6-7-6-5-7-8-350-350v-2l-4-2v-2l-4-2-16-16v-2l-4-1-5-5-2-1v-2l-4-2v-2h-2v-2h-2v-2l-2-1-4-4 1-3 15-6 11-7 9-1v-1zm-12 3m7 0m2 0m3 0v2l3 1 4-2-1-1zm-2 1m0 3m6 0 1 2zm3 1 2 5 2-2-2-3zm-5 2v3h2l2 3h3l-2 4 3 1 1 4-2 2v4l4-1-1-3h2l1 2v3 4h5l1-2-1 3-3 2 1 4 5-1-1-3 6-2v2l-4 2v3h2l1 8 3 1v-3l1 2h2v-3l2 1v-3l4 1-1-7h-5l3-2-4-4-6-5-1-2 2-1-9-9-4 1 1-4-5-1-3-1-2-3zm9 2m1 1m-11 1m1 1m13 1m-12 2m3 3v2l5 1v-2zm0 4m2 0m19 3m-20 1v3zm21 0m1 1m1 1m-18 2m18 0m-17 2m20 0m-19 1v2l2-1zm11 2m12 1m-27 2m-4 1m8 1m27 0m-24 2m6 0 1 2zm17 0 1 3v-3zm-47 1m4 1m40 1m2 1-2 1 1 4-6-1 1 2 5 1 2-2v-2l3-3zm-42 1m47 0m-43 1m41 0 2 3v-3zm-27 1m26 0m4 1 1 2zm-44 1 1 2zm4 0m36 0v3l-2 1 4 1 1-4zm7 0m-18 1m16 0m-27 1m12 0m13 0m3 1m2 0 1 2zm-39 1m27 0 1 2zm8 0 2 4v-4zm-40 1m4 0m7 0m14 0m9 0m11 0m-15 1m-25 1m26 0m7 0m8 0m-42 1m5 0m10 0m25 0m-36 1m28-1-2 1v2h3zm3 1m6 0 1 3zm4 0m-40 2m33 0m8 0m-42 1m4 0 1 2 1-2zm23 0m5 0m8 0m-10 1 1 2zm5 0m6 0 1 3zm4 0m-27 1m-13 1m26 0 1 2zm7 0m8 0m-42 1 1 2zm4 0 1 2 1-2zm32 0-1 2h2zm4 0m-10 1 1 2zm11 0 1 3zm4 0m-40 1v2l2-1zm13 0m28 1m-42 1 1 2zm3 0 2 2 1-2zm29 0m4 0m4 0m1 1 1 4zm4 0m-15 1m-25 1v3l2-3zm2 1 2 2 2-2zm29 0m8 0m-24 1m25 0 1 4zm4 0m-15 1m-25 1m26 0m6 0-1 2 3-1zm-33 1m4 0 1 2 2-2zm36 0m-24 1m25 0 1 4zm4 0m-15 1m-25 1m32 0m-33 1m3 0 2 2 2-2zm37 0m8 0m-16 1 1 2zm9 0v4l2-1zm4 0 1 2 1-2zm-15 1m-25 1m32 0m-33 1 1 2zm3 0 2 2 1-2zm24 0m13 0m8 0m-7 1v4l2-1zm4 0 1 2 1-2zm-28 1m13 0m2 0m-27 1m32 0m-33 1 1 2zm3 0 2 2 1-2zm37 0m4 0m3 0m-15 1 1 2zm9 0m4 0 1 2 1-2zm-27 1m12 0 1 2zm4 0m-29 1m32 0m4 0v2l2-1zm-37 1 1 2zm3 0 2 2 1-2zm38 0 1 2zm3 0m3 0m-15 1 1 2zm4 0m9 0 1 2 1-2zm-27 1m16 0m-29 1m32 0m4 0v2l2-1zm-37 1 1 2zm3 0 2 2 2-2zm14 0m23 0 1 5 2-1-1-3 3-1zm7 0m-15 1 1 2zm13 0m-27 1m12 0m4 0m-29 1m31 0-2 4h3v-2h2v-2zm-32 1 1 2zm3 0 2 2 2-2zm14 0m25-1-2 2 1 4 2-1-1-3 3-1zm5 1m-2 1m-27 1m17 0m-30 1m31 0 4 2-1-2zm10 0m2 0-1 2h2zm-44 1m3 0 1 2 3-1zm14 0m23 0 1 5 2-1-1-4zm7 0m-17 1 1 3 2-1-1-2zm15 0 1 2 1-2zm-27 1m16 0m-29 1-1 2 3-1zm31 0 1 2-1 2 5-1-2-3zm12 0v3zm-41 1 1 2 3-1zm14 0m23 0 2 2v-2zm7 0m-2 1 1 2 1-2zm-40 2-1 2 6 1 1-2zm25 0m6 0m5 0v2l2-1zm-20 1m18 0m9-1-4 2 1 4 2-1-1-3h3zm3 1m-15 1 1 3zm13 0 1 2 1-2zm-27 1m18-1-2 2 6 2-1-3zm-31 2m25 0m-26 1m4 0v2l3-1zm13 0m27-1-4 2 1 4 2-1-1-3 4-1zm3 1m-15 1 1 2zm4 0m9 0 1 2 1-2zm-27 1m12 0m4 0 1 2 5 1v-2zm-29 1m-1 1 1 2zm4 0v2l3-1zm13 0m27-1-4 2 1 3-5-1 1 2-3 1 1 2 6-2 2-2-1-3 4-1zm3 1m-17 1 1 3 5-1-3-2zm6 0m9 0 1 2 1-2zm-27 1m-13 1v3l2-3zm43 0-1 2 3-1zm-41 1 1 2 3-1zm14 0m23 0 1 5 2-1-1-4zm7 0m-2 1-1 7-4-4-2 3 1 2-2 1 2 2 3-1 1 2-3 1 3 2 3-1 2 3-4-2 2 4 3 2v-2h3l-2 4h6l1 1-3 1v2h2v2h2l1 2 4 1v3h4l1 2h-2l1 2 5 1-2 1 1 2h1v2h2l1 2h1v2h2l1 2h7l-4 2 1 2 7 1h-2l1 4v-2l4 2v3h3l1 3v-3h2l-1 3 1 1-2 2 2 2 2-1 1-1 1 3-3 1 3 2 3-1 1 2-3-1 2 4h2l2 4 12 12h5l1 5 1-2 4 2-1 2 2 1v4h5l-1 4h5l-1 4h6l1 1h-2l2 4v-2l4 2-1 4 3 3h3l-1 2 2 2 5 1-2 1 1 2 4 1v3h4l-3 2h2l1 2 4 1v3l5-1-2 5h2l2 4h2l2 4h5l-1 4h6v1 5h2l1 2h4l-1 4h5l-3 2h2l1 2h4l-2 3 2 1h7l-4 2 1 2 7 1h-2v2l-2 1 2 2 1-3 6 1v2l-3-1 1 3 2 4 3-2v2l-2 2h2l1 2 3-2 1 3-3 1h2l1 2 3-1-1 1-1 2h2l1 2 5-1-2 5 7 6v-2h3v3l4 2v2l3 2v3h4l-3 2h2l1 2 4 1v3l7 1-4 1v2l5 4h4l-1 4h5v3l6 2-2 4h2v-2l6 1v2l-3-1 1 3 3-1 1 4v-3h2l-1 3 1 2-3 1 3 2 3-1 1 2-3 1 4 2 2 4 13 13h2l1 3 4 4h2l2 4 6 5 2 3h2l1-2 2 2-3 2 4 2 1-2h4l2-2v-7l-2-2-1 5v3h-3l-1-4h-3l2-6v-3l2-2-6-1 2-3-6-1-1-4-3-1-1-3-3-1 2-2-6-1 2-3-6-1 2-3-6-1 2-3-6-1-1-4h-2l-2-4-3-1-1-3-3-1-1-3-3-1 2-2-6-1 2-3-6-1 2-3-6-1-1-4-3-1 2-2-6-1 2-3-6-1-1-4-3-1-1-3-3-1 2-2-6-1 2-3-6-1 2-3-6-1 2-3-6-1 2-3-6-1-1-4-3-1-1-3-3-1-1-3-3-1 2-2-6-1 2-3-6-1 2-3-6-1 2-3-6-1-1-4-3-1-1-3-3-1 2-2-6-1 2-3-6-1 2-3-6-1 2-3-6-1 2-3-6-1 2-3-6-1 2-3-6-1 2-3-6-1 2-3-6-1 2-3-6-1-1-4-3-1 2-2-6-1 2-3-6-1 2-3-6-1 2-3-6-1 2-3-6-1-1-4-3-1 2-2-6-1 2-3-6-1 2-3-6-1 2-3-6-1 2-3-6-1 2-3-6-1 2-3-6-1-1-4-3-1-1-3-3-1-1-3-3-1 2-2-6-1 2-3-6-1 2-3-6-1 2-3-6-1 2-3-6-1 2-3-6-1 2-3-6-1 2-3-6-1 2-3-6-1 2-3-6-1 2-3-6-1 2-3-6-1-1-4-3-1zm-27 1m-13 1v3l2-3zm31 0m-28 1v2l3-1zm13 0m30 0m-18 1m3 0 1 2zm-14 1m12 0 1 2zm-25 1m18 0m-19 1 1 2zm4 0v2l3-1zm13 0m1 2m-13 1m23 0m-24 1 1 2zm4 0v2l3-1zm13 0m1 2m-13 1m23 0 1 2zm-24 1 1 2zm4 0v2l3-1zm13 0m-12 3m-1 1 1 2zm4 0v2l3-1zm13 0m-1 1m-11 2m18 0m-19 1 1 2zm4 0v2l3-1zm13 0m10 0 2 2v-2zm-11 1m-10 2m17 0m-19 1 1 2zm4 0v2l3-1zm13 0m-1 1m2 0 1 2zm-12 2m17 0m-19 1 1 2zm4 0v2l3-1zm13 0m12 1m-11 1m5 1m5 0m-24 1 1 2zm4 0v2l3-1zm13 0m11 1m-10 1m-12 1m22 0m-24 1 1 2zm4 0v2l3-1zm13 0m11 1m-10 1m-12 1m17 0m5 0m-24 1 1 2zm4 0v2l3-1zm13 0m1 2m-12 1m17 0m5 0m-24 1 1 2zm4 0v2l3-1zm13 0m-12 3m23 0m-24 1 1 2zm4 0v2l3-1zm13 0m11 0m-22 3m-2 1 1 2zm4 0v2l3-1zm13 0m11 0m19 0m-29 2m-12 1m24 0m-26 1 1 2zm4 0v2l3-1zm13 0m30 0m-29 2m-12 1m17 0m7 0m-26 1 1 2zm4 0v2l3-1zm13 0m30 0m-18 1m-11 1m12 0 1 2zm-2 1m-24 1 1 2zm4 0v2l3-1zm13 0m1 2m-12 1m22 0m-24 1 1 2zm4 0v2l3-1zm13 0m1 2m-13 1m23 0 1 2zm-24 1 1 2zm4 0 1 2 2-2zm13 0m-12 3m-1 1 1 2zm4 0v2l3-1zm13 0m-11 3m-2 1 1 2zm4 0v2l3-1zm13 0m-11 3m17 0m-19 1 1 2zm4 0v2l3-1zm12 1m-10 2m17 0m-19 1 1 2zm4 0v2l3-1zm24 3m-24 1 1 2zm4 0v2l3-1zm24 0 1 2zm19 0m-17 2 1 2zm-24 1m-2 1 1 2zm4 0 1 2 2-2zm13 0m12 1m-11 1m12 0 1 2zm-24 1m17 0m5 0m-24 1 1 2zm4 0v2l3-1zm13 0m1 2m10 1 1 2zm-24 1 1 2zm4 0v2l3-1zm13 0m11 1m0 2m-24 1 1 2zm4 0 1 2 2-2zm13 0m11 0 1 2zm-22 3m-2 1 1 2zm4 0 1 2 2-2zm13 0m11 0m-22 3m24 0m-26 1 1 2zm4 0v2l3-1zm13 0m30 0m-29 1 1 2zm9 0m-4 2m7 0m-26 1 1 2zm4 0v2l3-1zm13 0m1 2m10 1m-24 1 1 2zm4 0v2l3-1zm13 0m1 2m-13 1m23 0m-24 1 1 2zm4 0v2l3-1zm13 0m12 1m-11 1m-13 1m-1 1 1 2zm4 0 1 2 2-2zm13 0m12 1m-11 1m-13 1m18 0m5 0m-24 1 1 2zm4 0 1 2 2-2zm13 0m1 2m-13 1m23 0 1 2zm-24 1 1 2zm4 0v2l3-1zm13 0m11 0v2l2-1zm-23 3m23 0m-24 1 1 2zm4 0 1 2 2-2zm13 0m11 0v2l2-1zm-22 3m22 0m-24 1 1 2zm4 0 1 2 2-2zm13 0m-11 3m17 0m5 0m-24 1 1 2zm4 0 1 2 2-2zm13 0m-11 3m17 0m5 0m-24 1 1 2zm4 0v2l3-1zm24 0 1 2zm-22 3m-2 1 1 2zm4 0 1 2 2-2zm24 0 1 2zm19 0m-41 3m24 0m-26 1 1 2zm4 0 1 2 2-2zm13 0m30 0m-29 2m5 1m5 0m-24 1 1 2zm4 0v2l3-1zm13 0m11 1m0 2m-24 1 1 2zm4 0 1 2 2-2zm13 0m-11 3m22 0m-24 1 1 2zm4 0 1 2 2-2zm13 0m11 1m0 2m-24 1 1 2zm4 0 1 2 2-2zm13 0m11 0 1 2zm-22 3m-2 1 1 2zm4 0 1 2 2-2zm13 0m11 0m19 0m-20 1m-22 2m-1 1 1 2zm4 0v2l3-1zm13 0m30 0m-29 1 1 2zm5 2m5 0m2 0m-26 1 1 2zm4 0v2l3-1zm13 0m30 0m-20 1m-9 1m10 1m-24 1 1 2zm4 0v2l3-1zm13 0m1 2m-13 1m-1 1 1 2zm4 0 1 2 2-2zm13 0m1 2m-13 1m23 0 1 2zm-24 1 1 2zm4 0 1 2 2-2zm13 0m-12 3m23 0 1 2zm-24 1 1 2zm4 0 1 2 2-2zm13 0m11 0 1 2zm-22 3m-2 1 1 2zm4 0 1 2 2-2zm13 0m-11 3m-2 1 1 2zm4 0 1 2 2-2zm43 0m-17 2 1 2zm-24 1m-2 1 1 2zm4 0 1 2 2-2zm24 0 1 2zm19 0m-17 2 1 2zm-24 1m17 0m-19 1 1 2zm4 0v2l3-1zm13 0m12 1m-23 2m17 0m5 0m-24 1 1 2zm4 0 1 2 2-2zm13 0m11 3m-24 1 1 2zm4 0 1 2 2-2zm13 0m11 0m19 0m-43 4 1 2zm4 0 1 2 2-2zm13 0m12 1m-6 2m-19 1 1 2zm4 0 1 2 2-2zm13 0m1 2m10 1m-24 1 1 2zm4 0v2l3-1zm13 0m11 1m0 2m-24 1 1 2zm4 0 1 2 2-2zm13 0m11 0m19 0m-41 3m24 0m-26 1 1 2zm4 0 1 2 2-2zm13 0m11 0m19 0m-20 1m3 2m-26 1 1 2zm4 0 1 2 2-2zm13 0m30 0m-29 2m12 1m-26 1 1 2zm4 0v2l3-1zm13 0m30 0m-18 1m-11 1m12 0 1 2zm-2 1m-24 1 1 2zm4 0 2 2 1-2zm13 0m1 2m10 1m-24 1 1 2zm4 0m13 0m-12 3m23 0 1 2zm-24 1 1 2zm4 0m0 3 1 2 2-2zm4 1m12 1m7 2m-19 1m4 0m43 0m-31 1m7 2m-19 1m4 0m2 0m41 0m-24 3m5 0m-24 1m4 0m2 0m-2 3 1 2zm19 0m5 0m-20 1m0 3 1 2zm24 0 1 2zm20 0 1 4h2l-1-4zm-40 1m43 0m-43 4m4 0m36 0 1 5 2-4zm7 0m2 3m-45 1m4 0m40 0m3 0m-2 1-1 4 1 3-5-1-4 3 4 2 1-2h4l2-2v-7zm-17 2 1 2zm-24 1m4 0m40 0m3 0m-2 1-1 7-4-1-1 3 6 1v-2l2-1v-7zm-17 2 1 2zm21 0m-45 1m4 0m40 0m3 0m-2 1-1 8h-2l1 2 4-3v-3l3-1-3-3zm-22 2m-19 1m4 0m24 0m19 0m-2 1 1 3 1-3zm-16 1 4 4-2-4zm-6 1m14 0-1 2 3-1zm12 0m-45 1m4 0m36 0-1 6 4-2-1-4zm4 0m3 0m-16 1m14 0-1 7-1 3 1 2 4-1 1 5h2l1 4h2v2l5 2v4h3l1-6-5-1 1-5h-3v2h-3v-2h2v-4h2v2h2v-2l2-1-7-1-2 1v2l-3 1v-2l2-1v-3l4 1 2-2-7-1-2 1v2l-3 1v-2l2-1v-7zm-15 1 1 3 2-1zm6 1-1 3 4-2zm-32 1m4 0m40 0m3 0m-2 1 1 2 1-2zm-15 1m4 0m-3 1 1 2zm5 0v2l4-2zm-32 1m17 1m13 0 1 4 1-3zm-7 2m9 2 3 2v-2zm-1 2m4 0m17 0-1 2 3-1zm-13 1m16 0m-19 1m17 0v2h2v-2zm-16 1 2 1 1 2v-2l2-1zm-2 1 1 2zm7 0m14 0v3l1 5-2 2v4l5 1v3h3l1 2h-2v2l6-1v5l4-1-2 5 6-1-1-7h2v-2h-2v-2l-4-1-4 2v-5l3-1-3-3-2 1 1 2-3-2-1-7h-3v-2l2-1zm-3 2m-19 1m10 0-3 4 2 1v-2h2zm-9 1 1 2zm4 1m25 0m-19 3m19 0 1 2 1-2zm-44 1m48 0m-24 1m3 0 1 2zm3 1-2 3 4-1zm-5 1m1 1m26 0m-3 1m-23 1m8 0m4 0m-13 1m10 0 1 2zm18 0m3 1m-23 1 1 2 1-2zm-3 1 1 2zm9 1-2 4 4-4zm21 1m-3 1v2h2v-2zm-14 2 1 2zm18 0m-22 1m17 0v9l3-1 1-2-1 5-2 4h2v-2l5-1-1-6 2-1-1-2-5 1-2-4zm3 0m5 0m-14 1m11 0v2h2v-2zm-22 2 1 2zm3 0 1 2 2-1zm5 0-1 2 3-1zm21 1m-34 1 1 2zm11 0m9 0m11 0 1 2 1-2zm-24 1m2 1m8 0 1 2zm3 1m11 0-2 7 1 2 4-2h3l1-3h-5zm-17 1m10 0m11 0m-22 2m8 0-1 4 2-4zm-12 1m8 0m-40 2m39 0m9 1m9 1 1 2zm7 0m-2 0-2 2h2l-1 6 3 2 1-3-2-1 1-4zm5 1m-63 1m46 0m-47 1m41 0 1 2zm4 0 1 2zm8 0 1 2 3-1zm15 0m-34 1m3 0m14 0v3h2v-3zm14-1-4 2 3 3 2-2zm-64 3m43 0m27 1m-19 1m3 0v3l2-1zm9 0m3 0-1 2-6 1v1h6l2 4v-3l3-1-2-2v-2zm-26 1m21 0m-58 1m41 0m-1 1m5 0 1 2 1-2zm4 0 1 2zm4 0 1 2zm18 1-1 5 2 1 1-5zm3 0m-42 1m15 0 1 3 1-3zm12 0v2h2v-2zm-14 1m9 0 1 2zm3 1-2 4h3l1-4zm2 1m7 0-2 2 2 2 2 1v-2l2-1-1-2zm-6 3m4 0m15 0m-30 1m27-1-5 1 4 3 2-1v-3zm-18 2v3l3-1-1-2zm7 0 1 2zm-60 1m43 0m22 0v3h5l-3-3zm9 0v2l-2 1 1 2-4 1 2 1 2-1-2 7v2l-1 3 3-1v-2h4v-2h2l1-6-1-3h-2l-2-4zm2 0m-34 3 2 2 1-2zm14 0m7 0 1 2zm1 2 1 2 2-2zm-16 2-1 2h2zm9 0 1 2zm3 0 1 2zm6 0 1 3 2-1zm5 0m-7 2 1 2zm18 0-3 4v2 1l-3 1-1 3 5-1v2l-4 2 3 1v5l-2 1-1-3-2 6h3l-1 5 2 3h-2v-2l-3 1 1 2-2 1 1 5-5 2 1 4 1-3v4l-5 2h-4l-2 3-4 2 1 2-3-1 1 4 4-1 2-1-3 3h-4l-1-2h-2l-1 3h-5v2l3 2v3h-2l1-3h-2l-1 4h-3l-1 6h5l-2 2-4 2-6 2-1 6-4 2v2l-4 2 2 2 2-1-2 4-1 3h-2v3l-3 1-3 6v2h-2v2l-5 1v6l-4 2 1 4-4 2-1 2v-2h-2l-2 7-3 1v2l-4 2-1 5-3-1v3l-4 1v3l-4 1v3l-4 1v3l-4 1v3l-4 1v3l-4 1v3l-4 1v3l-4 1v3l-4 1v3l-4 1v3l-4 1v3l-4 1v3l-4 1v3l-4 1v3l-4 1v3l-4 1v3l-4 1v3l-4 1v3l-4 1v3l-4 1v3l-4 1v3l-4 1v3l-4 1v3l-4 1v3l-4 1v3l-4 1v3l-4 1v3l-4 1v3l-4 1v3l-4 1v3l-4 1v3l-4 1v3l-4 1v3l-4 1v3l-4 1v3l-4 1v3l-4 1v3l-4 1v3l-4 1v3l-4 1v3l-4 1v3l-4 1v3l-4 1v3l-4 1v3l-4 1v3l-4 1v3l-4 1v3l-4 1v3l-4 1v3l-4 1v3l-4 1v3l-4 1v3l-4 1v3l-4 1v3l-4 1v3l-4 1v3l-4 1v3l-4 1v3l-4 1v3l-4 1v3l-4 1v3l-4 1v3l-4 1v3l-4 1v3l-4 1v3l-4 1v3l-4 1v3l-4 1v3l-4 1v3l-4 1v3l-4 1v3l-4 1v3l-4 1v3l-4 1v3l-4 1v3l-4 1v3l-4 1v3l-4 1v3l-4 1v3l-4 1v3l-4 1v3l-4 1v3l-4 1v3l-4 1v3l-4 1v3l-4 1v3l-4 1v3l-4 1v3l-4 1v3l-4 1v3l-4 1v3l-4 1v3l-4 1v3l-4 1v3l-4 1v3l-4 1v3l-4 1v3l-4 1v3l-4 1v3l-4 1v3l-4 1v3l-4 1v3l-4 1v3l-4 1v3l-4 1v3l-4 1v3l-4 1v3l-4 1v3l-4 1v3l-4 1v3l-4 1v3l-4 1v3l-4 1v3l-4 1v3l-4 1v3l-4 1v3l-4 1v3l-4 1v3l-4 1v3l-4 1v3l-4 1v3l-4 1v3l-4 1v3l-4 1v3l-4 1v3l-4 1v3l-4 1v3l-4 1v3l-4 1v3l-4 1v3l-4 1v3l-4 1v3l-4 1v3l-4 1v3l-4 1v3l-4 1v3l-4 1v3l-4 1v3l-4 1v3l-4 1v3l-4 1v3l-4 1v3l-4 1v3l-4 1v3l-4 1v3l-4 1v3l-4 1v3l-4 1v3l-4 1v3l-4 1v3l-4 1v3l-4 1v3l-4 1v3l-4 1v3l-4 1v3l-4 1v3l-4 1v3l-4 1v3l-4 1-4 4v3l-3-1-2 3h-2l-1 2-3-1v2h-2l1 3-2 1-1-3h-2l-1-2v2h-2v2h-2v2l-5 1v2l-10-2-5 4v3l-4 2-1 2h-2l-1 4 5 2 2-1v2l-3 1 10 4 6-2h2v2l7-2 4-2-1-2 5 1 4-3h3l3-2v-2l4-1 3-1v-2l5-2 7-8 4-5 4-4v-1l4-2 8-8 6-5 6-7 6-5 6-7 6-5 4-4v-2l4-1v-3l4-1v-3l4-1v-3l4-1v-3l4-1v-3l4-1v-3l4-1v-3l4-1 7-8 5-4 7-8 5-4 7-8 5-4 7-8 5-4 7-8 5-4 7-8 5-4 7-8 5-4 7-8 5-4 7-8 5-4 7-8 5-4 7-8 5-4 7-8 5-4 7-8 5-4 7-8 5-4 7-8 5-4 7-8 5-4 7-8 5-4 7-8 5-4 7-8 5-4 7-8 5-4 7-8 5-4 7-8 5-4 7-8 5-4 7-8 5-4 7-8 5-4 7-8 5-4 7-8 5-4 7-8 5-4 7-8 5-4 7-8 5-4 7-8 5-4 7-8 5-4 7-8 5-4 7-8 5-4 7-8 5-4 7-8 5-4 7-8 5-4 7-8 5-4 7-8 5-4 7-8 5-4 7-8 5-4 7-8 5-4 7-8 5-4 5-6 27-27 6-7 6-5 6-7 6-5 6-7 6-5 6-7 6-5 5-6 1-2h2l2-4h2l2-4h2l2-4h2l2-4h2l6-7 4-4 4-7 6-6 1-4 3-5-1-3h2l1-7 1-3v-2h-2v-2l3-1v-2h-2l2-4-1-5-2-7-2-1 1-6-4-1 1-5-3-3v2h-2l1-6h-2zm-27 2-1 2 3-1zm8 0m4 3m-2 1m3 0m9 0m-38 1m20 0m5 2 1 2zm10 0m-40 1 2 2v-2zm27 1 1 2zm4 0m3 0m23 0m-36 1m16 0m2 0 2 2v-2zm-24 2m14 0v2l3 1v-2zm8 0 4 4 1-3zm-26 1m32 1 1 2zm-11 1 2 4-1-4zm6 1v2l2-1zm-26 1m-11 1m19 0m10 0m28 0m-26 1m7 0m-19 1v2l2-1zm16 1m-6 1m2 0v6l3-2 1-2-1-2zm-12 2m4 0m2 0 1 2zm2 0m-9 1m-6 1m25 0m2 0m-21 1v2h2v-2zm-19 1 2 2v-2zm13 0m24 0v3l2-1zm-11 1m6 0m-11 0-2 2h3zm3 1m3 1m8 0-1 2 3-1zm-62 1 1 2zm36 0 1 2zm22 0-1 2h2zm-23 2 1 2zm17 0m-1 1-1 2h2zm7 0m-17 1 1 3zm2 0m17 0 1 2zm-60 1m44 0m-9 2 4 1zm12 0v3l4-1h-2v-2zm-47 1 1 2zm27 0 2 2v-2zm18 1m-9 1m10 0m13-3v3h-4v3l4-1 1-5zm-17 4m-42 1 1 2zm27 0m14 0m9 0m-5 1 1 2 1-2zm44 1m-40 1m-11 1 1 2 1-2zm10 0m-13 1m8 0 1 2zm46 0m-59 1-1 2h2zm7 1m5 0m-6 1v3l4-1zm-10 1 2 2v-2zm-30 3 1 3zm45 0m-21 1m15 1m-2 1m-36 1m30 0v2l4-1zm-32 1m-2 1m38 0m-7 2 1 2zm9 0m-8 3m4 0m50 0m-59 1m11 0m-2 2 1 3zm-4 2v5h2v-2h2l-1-3zm-25 1m30 0m-1 2m-36 1m27 0 1 2zm-5 4 2 2v-2zm7 0m0 2-1 2h2zm41 7m-80 1m33 3-1 2h2zm43 0m-75 3m71 1m-75 1m31 0-2 2h3zm-31 2m71 1m-73 3m31 0m-6 2 1 2zm5 0m-4 4m-8 8m3 0m-5 3 1 5h2v-5zm-4 4m2 0m-2 3m-35 2m32 0m-1 2m-2 1m0 2 1 2zm-2 1m-3 2m-1 2m-2 3 1 2zm-4 5m-8 8m-4 4m-4 4m-26 1m22 3m-4 4m-26 1m22 3m-4 4m-26 1m22 3m-26 1m22 3m-26 1m22 3m-26 1m22 3m-26 1m20 3m2 0m-26 1m20 3m2 0m-26 1m20 3m2 0m-26 1m20 3m2 0m-26 1m20 3m2 0m-26 1m22 3m-26 1m20 3m2 0m-26 1m20 3m2 0m-26 1m20 3m2 0m-26 1m20 3m-24 1m20 3m2 0m-6 4m2 0m-6 4m-24 1m20 3m-4 4m-24 1m20 3m-24 1m20 3m-24 1m20 3m-24 1m20 3m-24 1m20 3m-24 1m20 3m-24 1m20 3m2 0m-6 4m-24 1m20 3m2 0m-6 4m2 0m-6 4m-4 4m2 0m-6 4m-4 4m-4 4m-4 4m-24 1m20 3m-24 1m20 3m-24 1m20 3m-24 1m20 3m2 0m-26 1m20 3m2 0m-26 1m20 3m-24 1m20 3m-24 1m20 3m2 0m-26 1m20 3m2 0m-26 1m20 3m-24 1m20 3m2 0m-6 4m-4 4m-24 1m20 3m-24 1m20 3m-24 1m20 3m-24 1m20 3m34 0m-58 1m20 3m34 0m-58 1m26 0m-6 3m34 0m-58 1m20 3m34 0m-58 1m20 3m34 0m-58 1m20 3m34 0m-58 1m20 3m34 0m-58 1m20 3m34 0m-58 1m20 3m34 0m-58 1m20 3m34 0m-58 1m20 3m34 0m-58 1m20 3m34 0m-58 1m20 3m34 0m-38 4m34 0m-58 1m20 3m34 0m-58 1m20 3m34 0m-38 4m34 0m-58 1m20 3m34 0m-58 1m20 3m-24 1m20 3m-24 1m20 3m-24 1m20 3m-24 1m20 3m-24 1m20 3m-24 1m20 3m-24 1m20 3m-24 1m20 3m-24 1m20 3m-4 4m-4 4m-24 1m20 3m-24 1m20 3m-24 1m20 3m-24 1m20 3m2 0m-26 1m20 3m2 0m-26 1m20 3m2 0m-26 1m20 3m2 0m-26 1m20 3m2 0m-26 1m20 3m2 0m-26 1m20 3m2 0m-26 1m20 3m2 0m-26 1m20 3m2 0m-26 1m20 3m2 0m-26 1m20 3m2 0m-26 1m20 3m2 0m-26 1m20 3m2 0m-6 4m2 0m-26 1m20 3m2 0m-26 1m20 3m2 0m-26 1m20 3m2 0m-26 1m20 3m2 0 1 2zm-26 1m20 3m-24 1m20 3m-24 1m20 3m2 0m-26 1m20 3m-24 1m20 3m-24 1m20 3m-24 1m20 3m-24 1m20 3m-24 1m20 3m-24 1m20 3m-24 1m20 3m-4 4m-4 4m-24 1m20 3m-4 4m-24 1m20 3m-24 1m20 3m-24 1m20 3m34 0m-58 1m20 3m34 0m-58 1m20 3m34 0m-58 1m20 3m-24 1m20 3m-24 1m20 3m-24 1m20 3m-24 1m20 3m-24 1m20 3m-24 1m20 3m-24 1m20 3m-24 1m20 3m-24 1m20 3m-24 1m20 3m-24 1m20 3m-24 1m20 3m-24 1m20 3m-24 1m20 3m-24 1m10 1m10 2m-24 1m10 1m-14 1m24 1m-24 1m10 1m-14 1m24 1m-24 1m10 1m-14 1m24 1m2 0 1 2zm-26 1m10 1m-14 1m24 1m-24 1m26 0m-16 1m-14 1m-1 1v2l2-1zm25 0m2 0 1 2zm-16 2m-14 1v3zm24 1m2 0 1 2zm-16 2m-14 1-1 3 3-1zm24 1m2 1m-16 1m-14 1-1 3h2l1-3zm24 1m-6 1m8 0m-30 2-1 3 3-1v-2zm19 0m5 1m-6 1m4 0m4 0m-23 1m7 0m-14 1-1 3 3-1v-2zm24 1m-6 1m8 0m-16 1m-14 1-1 3 4-2zm19 0m-24 1m29 0m-6 1m8 0m-23 1m12 0 1 2zm-20 1v3l3-1v-2zm25 1m-6 1m4 0 1 2zm-19 1m12 0 1 2zm-19 1-1 3 3-1v-2zm24 1m3 0m-23 1v3zm10 0m4 0m4 0 1 2zm-12 1m5 0 1 2zm-20 1 1 3 2-1v-2zm25 1m-28 1m18 0m4 0m-15 1v2h2v-2zm7 0m-15 1-3 3h5l2-3zm15 2m-11 1v2h2v-2zm7 0m-15 1v2l3-1zm11 0m-11 3m-1 2m-19 8m62 0m-52 4m-13 1v2h2v-2zm53 1m-50 1m18 3-1 2 4-1z" fill="#BA8FD1"/>
<path transform="translate(441,164)" d="m0 0h20l-1 2-10 4-13 8-5 3-1 1h-5l-2-3 6-2-2-2-5 1-1 2-2-2v-2l-1-4 8-3z" fill="#BA8FD1"/>
<path transform="translate(931,634)" d="m0 0h2v8h2l1-4 1 4v4h2v-4h2v8h2v-4h2v7l-5-2v-3l-4-1v-3l-4-1v-3h-3v-2h2z" fill="#BA8FD1"/>
<path transform="translate(948,650)" d="m0 0 1 4v4h2l1-4 1 4v4h2v-4h2v8h2v-4h2v7l-5-2v-3l-4-1v-3l-4-1v-3h-3v-2h2z" fill="#BA8FD1"/>
<path transform="translate(840,542)" d="m0 0 1 4v4h2l1-4 1 4v4h2v-4h2v8h2v-4h2v7l-5-2v-3l-4-1v-3l-4-1v-3h-3v-2h2z" fill="#BA8FD1"/>
<path transform="translate(1044,746)" d="m0 0 1 4v4h2v-4h2v8h2v-4h2l1 3-2 4-5-2 1-3-4-1-1-3-2-2h2z" fill="#BA8FD1"/>
<path transform="translate(976,678)" d="m0 0 1 4v4h2v-4h2v8h2v-4h2v7l-5-2v-3l-4-1-2-3-1-2h2z" fill="#BA8FD1"/>
<path transform="translate(904,606)" d="m0 0 1 4v4h2v-4h2v8h2v-4h2v7l-5-2v-3l-4-1-1-3-2-2h2z" fill="#BA8FD1"/>
<path transform="translate(1e3 702)" d="m0 0 1 3v5h2v-4h2v8l2-4h2v7l-5-2v-3l-4-1-1-3-2-2h2z" fill="#BA8FD1"/>
<path transform="translate(1011,714)" d="m0 0h2v8h2l1-4 1 4-1 3-4-2v-3h-4v-2l2-2z" fill="#BA8FD1"/>
<path transform="translate(1092,794)" d="m0 0 2 3v4l1-3h2l1 3-2 4-4-2-2-3-1-2h2z" fill="#BA8FD1"/>
<path transform="translate(1028,730)" d="m0 0 1 4v4h2v-4h2v8l-1-2-7-1 3-1-3-4h2z" fill="#BA8FD1"/>
<path transform="translate(868,570)" d="m0 0 1 3v5l2-4h2v7l-5-2-2-3-1-2h2z" fill="#BA8FD1"/>
<path transform="translate(1203,976)" d="m0 0 4 2-3 1-1 3h-2l-3-5 5 1z" fill="#BA8FD1"/>
<path transform="translate(1099,802)" d="m0 0h2l1 3-2 4-4-2z" fill="#BA8FD1"/>
<path transform="translate(1079,782)" d="m0 0h2l1 3-2 4-4-2z" fill="#BA8FD1"/>
<path transform="translate(875,578)" d="m0 0h2v7l-5-1v-2h2z" fill="#BA8FD1"/>
<path transform="translate(815,518)" d="m0 0h2v7l-5-1z" fill="#BA8FD1"/>
<path transform="translate(811,514)" d="m0 0h2v7l-5-1z" fill="#BA8FD1"/>
<path transform="translate(718,421)" d="m0 0 2 4-4 1-3-3 4-1z" fill="#BA8FD1"/>
<path transform="translate(1075,778)" d="m0 0h2v7l-5-1v-2l2-2z" fill="#BA8FD1"/>
<path transform="translate(880,582)" d="m0 0 1 4-1 3-4-1v-2z" fill="#BA8FD1"/>
<path transform="translate(1104,806)" d="m0 0 2 3-2 4-3-1 2-5z" fill="#BA8FD1"/>
<path transform="translate(1083,786)" d="m0 0h2l1 3-2 4-3-1v-2h2z" fill="#BA8FD1"/>
<path transform="translate(1071,774)" d="m0 0h2v7l-4-1z" fill="#BA8FD1"/>
<path transform="translate(1035,738)" d="m0 0h2l1 3-2 4-3-1v-2h2z" fill="#BA8FD1"/>
<path transform="translate(819,522)" d="m0 0h2v7l-5-1 1-2h2z" fill="#BA8FD1"/>
<path transform="translate(1088,790)" d="m0 0 2 3-2 4-3-1v-2h2z" fill="#BA8FD1"/>
<path transform="translate(1040,742)" d="m0 0 2 3-2 4-3-1v-2h2z" fill="#BA8FD1"/>
<path transform="translate(964,666)" d="m0 0 2 3-2 4-3-1v-2h2z" fill="#BA8FD1"/>
<path transform="translate(916,618)" d="m0 0 2 3-2 4-3-1v-2h2z" fill="#BA8FD1"/>
<path transform="translate(884,586)" d="m0 0 1 4-1 4v-2h-3v-2h2z" fill="#BA8FD1"/>
<path transform="translate(856,558)" d="m0 0 1 4-1 3-4-2 3-1z" fill="#BA8FD1"/>
<path transform="translate(836,538)" d="m0 0 1 4-1 4v-2h-3v-2h2z" fill="#BA8FD1"/>
<path transform="translate(828,530)" d="m0 0 1 4-1 4v-2l-3-1 2-1-1-3z" fill="#BA8FD1"/>
<path transform="translate(824,526)" d="m0 0 1 4-1 3-3-1v-2h2l-1-3z" fill="#BA8FD1"/>
<path transform="translate(1056,758)" d="m0 0 2 3-2 4-3-3h2z" fill="#BA8FD1"/>
<path transform="translate(1024,726)" d="m0 0 1 4-1 4v-2l-3-1 2-1z" fill="#BA8FD1"/>
<path transform="translate(1020,722)" d="m0 0 1 4-1 3-3-1v-2h2z" fill="#BA8FD1"/>
<path transform="translate(988,690)" d="m0 0 2 3-2 4-3-3h2z" fill="#BA8FD1"/>
<path transform="translate(928,630)" d="m0 0 1 4-1 4-2-2-1-2h2z" fill="#BA8FD1"/>
<path transform="translate(896,598)" d="m0 0 2 3-2 4-3-3h2z" fill="#BA8FD1"/>
<path transform="translate(888,590)" d="m0 0 1 4-1 4v-2l-3-1 2-1z" fill="#BA8FD1"/>
<path transform="translate(832,534)" d="m0 0 1 4-1 4-3-4h2l-1-3z" fill="#BA8FD1"/>
<path transform="translate(451,1725)" d="m0 0h2l1 3h-7l-1-2z" fill="#BA8FD1"/>
<path transform="translate(1064,766)" d="m0 0 1 4-1 4-3-4h2z" fill="#BA8FD1"/>
<path transform="translate(1060,762)" d="m0 0 2 3-2 4-3-3h2z" fill="#BA8FD1"/>
<path transform="translate(996,698)" d="m0 0 1 4-1 4-3-4h2z" fill="#BA8FD1"/>
<path transform="translate(972,674)" d="m0 0 1 4-1 4-3-4h2z" fill="#BA8FD1"/>
<path transform="translate(924,626)" d="m0 0 1 4-1 4-3-4h2z" fill="#BA8FD1"/>
<path transform="translate(892,594)" d="m0 0 1 4-1 3-3-3h2z" fill="#BA8FD1"/>
<path transform="translate(1068,770)" d="m0 0 1 3v5l-4-4h2z" fill="#BA8FD1"/>
<path transform="translate(992,694)" d="m0 0 1 4-1 3-3-3h2z" fill="#BA8FD1"/>
<path transform="translate(968,670)" d="m0 0 1 4-1 3-3-3h2z" fill="#BA8FD1"/>
<path transform="translate(920,622)" d="m0 0 1 4-1 3-3-3h2z" fill="#BA8FD1"/>
<path transform="translate(900,602)" d="m0 0 1 4-1 3-3-3h2z" fill="#BA8FD1"/>
<path transform="translate(864,566)" d="m0 0 1 4-1 3-3-3h2z" fill="#BA8FD1"/>
<path transform="translate(860,562)" d="m0 0 1 4-1 3-3-3h2z" fill="#BA8FD1"/>
<path transform="translate(821,536)" d="m0 0 5 1 2 2h-6z" fill="#BA8FD1"/>
<path transform="translate(1093,806)" d="m0 0 3 3v2h-3l-1-3z" fill="#BA8FD1"/>
<path transform="translate(1168,1012)" d="m0 0 3 1-2 4h-2z" fill="#BA8FD1"/>
<path transform="translate(1167,870)" d="m0 0 4 2-1 2-3-1z" fill="#BA8FD1"/>
<path transform="translate(1154,856)" d="m0 0 3 2v3h-2z" fill="#BA8FD1"/>
<path transform="translate(1073,786)" d="m0 0 1 2h2l-1 3-3-3z" fill="#BA8FD1"/>
<path transform="translate(883,599)" d="m0 0 5 2-1 2h-2v-2h-2z" fill="#BA8FD1"/>
<path transform="translate(1174,1006)" d="m0 0h2l1 3-5 1z" fill="#BA8FD1"/>
<path transform="translate(1214,920)" d="m0 0 2 1 2 3h-3z" fill="#BA8FD1"/>
<path transform="translate(1101,814)" d="m0 0 1 2h2v2l-4-1z" fill="#BA8FD1"/>
<path transform="translate(1085,798)" d="m0 0 1 2h2v2l-4-1z" fill="#BA8FD1"/>
<path transform="translate(1076,792)" d="m0 0h4l-1 3h-2z" fill="#BA8FD1"/>
<path transform="translate(1069,782)" d="m0 0 3 4h-3l-1-2z" fill="#BA8FD1"/>
<path transform="translate(1008,724)" d="m0 0h4l-1 3h-2z" fill="#BA8FD1"/>
<path transform="translate(876,592)" d="m0 0h4l-1 3h-2z" fill="#BA8FD1"/>
<path transform="translate(872,588)" d="m0 0h4l-1 3h-2z" fill="#BA8FD1"/>
<path transform="translate(445,1729)" d="m0 0 3 2-4 1-1-2z" fill="#BA8FD1"/>
<path transform="translate(1178 1e3)" d="m0 0 1 3-2 2-1-3h2z" fill="#BA8FD1"/>
<path transform="translate(1190,990)" d="m0 0 1 4h-3z" fill="#BA8FD1"/>
<path transform="translate(1096,812)" d="m0 0h4l-1 3z" fill="#BA8FD1"/>
<path transform="translate(1089,802)" d="m0 0 3 4-4-1z" fill="#BA8FD1"/>
<path transform="translate(1080,796)" d="m0 0h4l-1 3z" fill="#BA8FD1"/>
<path transform="translate(961,676)" d="m0 0 4 1-3 2z" fill="#BA8FD1"/>
<path transform="translate(944,660)" d="m0 0h4l-1 3z" fill="#BA8FD1"/>
<path transform="translate(881,596)" d="m0 0 4 1-3 2z" fill="#BA8FD1"/>
<path transform="translate(1475,460)" d="m0 0 4 2-1 2z" fill="#FEFEFE"/>
<path transform="translate(1471,456)" d="m0 0 4 2-1 2z" fill="#FEFEFE"/>
<path transform="translate(431,1730)" d="m0 0 2 3-4-2z" fill="#BA8FD1"/>
<path transform="translate(1152,1039)" d="m0 0 1 4-2-1z" fill="#BA8FD1"/>
<path transform="translate(1209,971)" d="m0 0 2 1v2l-3-1z" fill="#BA8FD1"/>
<path transform="translate(1213,964)" d="m0 0 2 3-3 1z" fill="#BA8FD1"/>
<path transform="translate(948,664)" d="m0 0 4 1-3 1z" fill="#BA8FD1"/>
<path transform="translate(708,403)" d="m0 0 4 2h-3z" fill="#BA8FD1"/>
<path transform="translate(465,1720)" d="m0 0h3l-1 2h-2z" fill="#BA8FD1"/>
<path transform="translate(1208,976)" d="m0 0h3l-1 3v-2z" fill="#BA8FD1"/>
<path transform="translate(1220,934)" d="m0 0 4 1-2 1z" fill="#BA8FD1"/>
<path transform="translate(1037,752)" d="m0 0 3 1-3 1z" fill="#BA8FD1"/>
<path transform="translate(917,632)" d="m0 0 3 1-3 1z" fill="#BA8FD1"/>
<path transform="translate(1500,485)" d="m0 0 3 1-1 2z" fill="#FEFEFE"/>
<path transform="translate(715,415)" d="m0 0h4l-1 2z" fill="#BA8FD1"/>
<path transform="translate(543,1654)" d="m0 0h2v2h-2z" fill="#BA8FD1"/>
<path transform="translate(551,1646)" d="m0 0h2v2h-2z" fill="#BA8FD1"/>
<path transform="translate(555,1642)" d="m0 0h2v2h-2z" fill="#BA8FD1"/>
<path transform="translate(563,1634)" d="m0 0h2v2h-2z" fill="#BA8FD1"/>
<path transform="translate(607,1590)" d="m0 0h2v2h-2z" fill="#BA8FD1"/>
<path transform="translate(611,1586)" d="m0 0h2v2h-2z" fill="#BA8FD1"/>
<path transform="translate(615,1582)" d="m0 0h2v2h-2z" fill="#BA8FD1"/>
<path transform="translate(671,1526)" d="m0 0h2v2h-2z" fill="#BA8FD1"/>
<path transform="translate(683,1514)" d="m0 0h2v2h-2z" fill="#BA8FD1"/>
<path transform="translate(795,1402)" d="m0 0h2v2h-2z" fill="#BA8FD1"/>
<path transform="translate(803,1394)" d="m0 0h2v2h-2z" fill="#BA8FD1"/>
<path transform="translate(1075,1122)" d="m0 0h2v2h-2z" fill="#BA8FD1"/>
<path transform="translate(1079,1118)" d="m0 0h2v2h-2z" fill="#BA8FD1"/>
<path transform="translate(1083,1114)" d="m0 0h2v2h-2z" fill="#BA8FD1"/>
<path transform="translate(1087,1110)" d="m0 0h2v2h-2z" fill="#BA8FD1"/>
<path transform="translate(1091,1106)" d="m0 0h2v2h-2z" fill="#BA8FD1"/>
<path transform="translate(1192,988)" d="m0 0 2 1h-3z" fill="#BA8FD1"/>
<path transform="translate(1196,984)" d="m0 0h2v2h-2z" fill="#BA8FD1"/>
<path transform="translate(1205,973)" d="m0 0 3 1h-3z" fill="#BA8FD1"/>
<path transform="translate(1220,947)" d="m0 0 1 2-3-1z" fill="#BA8FD1"/>
<path transform="translate(1220,943)" d="m0 0h2v2h-2z" fill="#BA8FD1"/>
<path transform="translate(495,1702)" d="m0 0 2 1-2 1z" fill="#BA8FD1"/>
<path transform="translate(523,1674)" d="m0 0 2 1-2 1z" fill="#BA8FD1"/>
<path transform="translate(527,1670)" d="m0 0 2 1-2 1z" fill="#BA8FD1"/>
<path transform="translate(531,1666)" d="m0 0 2 1-2 1z" fill="#BA8FD1"/>
<path transform="translate(535,1662)" d="m0 0 2 1-2 1z" fill="#BA8FD1"/>
<path transform="translate(539,1658)" d="m0 0 2 1-2 1z" fill="#BA8FD1"/>
<path transform="translate(547,1650)" d="m0 0 2 1-2 1z" fill="#BA8FD1"/>
<path transform="translate(559,1638)" d="m0 0 2 1-2 1z" fill="#BA8FD1"/>
<path transform="translate(567,1630)" d="m0 0 2 1-2 1z" fill="#BA8FD1"/>
<path transform="translate(571,1626)" d="m0 0 2 1-2 1z" fill="#BA8FD1"/>
<path transform="translate(575,1622)" d="m0 0 2 1-2 1z" fill="#BA8FD1"/>
<path transform="translate(579,1618)" d="m0 0 2 1-2 1z" fill="#BA8FD1"/>
<path transform="translate(583,1614)" d="m0 0 2 1-2 1z" fill="#BA8FD1"/>
<path transform="translate(587,1610)" d="m0 0 2 1-2 1z" fill="#BA8FD1"/>
<path transform="translate(591,1606)" d="m0 0 2 1-2 1z" fill="#BA8FD1"/>
<path transform="translate(595,1602)" d="m0 0 2 1-2 1z" fill="#BA8FD1"/>
<path transform="translate(599,1598)" d="m0 0 2 1-2 1z" fill="#BA8FD1"/>
<path transform="translate(603,1594)" d="m0 0 2 1-2 1z" fill="#BA8FD1"/>
<path transform="translate(619,1578)" d="m0 0 2 1-2 1z" fill="#BA8FD1"/>
<path transform="translate(623,1574)" d="m0 0 2 1-2 1z" fill="#BA8FD1"/>
<path transform="translate(627,1570)" d="m0 0 2 1-2 1z" fill="#BA8FD1"/>
<path transform="translate(631,1566)" d="m0 0 2 1-2 1z" fill="#BA8FD1"/>
<path transform="translate(635,1562)" d="m0 0 2 1-2 1z" fill="#BA8FD1"/>
<path transform="translate(643,1554)" d="m0 0 2 1-2 1z" fill="#BA8FD1"/>
<path transform="translate(647,1550)" d="m0 0 2 1-2 1z" fill="#BA8FD1"/>
<path transform="translate(651,1546)" d="m0 0 2 1-2 1z" fill="#BA8FD1"/>
<path transform="translate(655,1542)" d="m0 0 2 1-2 1z" fill="#BA8FD1"/>
<path transform="translate(659,1538)" d="m0 0 2 1-2 1z" fill="#BA8FD1"/>
<path transform="translate(663,1534)" d="m0 0 2 1-2 1z" fill="#BA8FD1"/>
<path transform="translate(667,1530)" d="m0 0 2 1-2 1z" fill="#BA8FD1"/>
<path transform="translate(675,1522)" d="m0 0 2 1-2 1z" fill="#BA8FD1"/>
<path transform="translate(687,1510)" d="m0 0 2 1-2 1z" fill="#BA8FD1"/>
<path transform="translate(691,1506)" d="m0 0 2 1-2 1z" fill="#BA8FD1"/>
<path transform="translate(699,1498)" d="m0 0 2 1-2 1z" fill="#BA8FD1"/>
<path transform="translate(703,1494)" d="m0 0 2 1-2 1z" fill="#BA8FD1"/>
<path transform="translate(711,1486)" d="m0 0 2 1-2 1z" fill="#BA8FD1"/>
<path transform="translate(715,1482)" d="m0 0 2 1-2 1z" fill="#BA8FD1"/>
<path transform="translate(719,1478)" d="m0 0 2 1-2 1z" fill="#BA8FD1"/>
<path transform="translate(723,1474)" d="m0 0 2 1-2 1z" fill="#BA8FD1"/>
<path transform="translate(727,1470)" d="m0 0 2 1-2 1z" fill="#BA8FD1"/>
<path transform="translate(731,1466)" d="m0 0 2 1-2 1z" fill="#BA8FD1"/>
<path transform="translate(735,1462)" d="m0 0 2 1-2 1z" fill="#BA8FD1"/>
<path transform="translate(739,1458)" d="m0 0 2 1-2 1z" fill="#BA8FD1"/>
<path transform="translate(743,1454)" d="m0 0 2 1-2 1z" fill="#BA8FD1"/>
<path transform="translate(747,1450)" d="m0 0 2 1-2 1z" fill="#BA8FD1"/>
<path transform="translate(751,1446)" d="m0 0 2 1-2 1z" fill="#BA8FD1"/>
<path transform="translate(755,1442)" d="m0 0 2 1-2 1z" fill="#BA8FD1"/>
<path transform="translate(759,1438)" d="m0 0 2 1-2 1z" fill="#BA8FD1"/>
<path transform="translate(763,1434)" d="m0 0 2 1-2 1z" fill="#BA8FD1"/>
<path transform="translate(767,1430)" d="m0 0 2 1-2 1z" fill="#BA8FD1"/>
<path transform="translate(771,1426)" d="m0 0 2 1-2 1z" fill="#BA8FD1"/>
<path transform="translate(775,1422)" d="m0 0 2 1-2 1z" fill="#BA8FD1"/>
<path transform="translate(779,1418)" d="m0 0 2 1-2 1z" fill="#BA8FD1"/>
<path transform="translate(783,1414)" d="m0 0 2 1-2 1z" fill="#BA8FD1"/>
<path transform="translate(787,1410)" d="m0 0 2 1-2 1z" fill="#BA8FD1"/>
<path transform="translate(791,1406)" d="m0 0 2 1-2 1z" fill="#BA8FD1"/>
<path transform="translate(799,1398)" d="m0 0 2 1-2 1z" fill="#BA8FD1"/>
<path transform="translate(807,1390)" d="m0 0 2 1-2 1z" fill="#BA8FD1"/>
<path transform="translate(811,1386)" d="m0 0 2 1-2 1z" fill="#BA8FD1"/>
<path transform="translate(815,1382)" d="m0 0 2 1-2 1z" fill="#BA8FD1"/>
<path transform="translate(819,1378)" d="m0 0 2 1-2 1z" fill="#BA8FD1"/>
<path transform="translate(823,1374)" d="m0 0 2 1-2 1z" fill="#BA8FD1"/>
<path transform="translate(827,1370)" d="m0 0 2 1-2 1z" fill="#BA8FD1"/>
<path transform="translate(831,1366)" d="m0 0 2 1-2 1z" fill="#BA8FD1"/>
<path transform="translate(835,1362)" d="m0 0 2 1-2 1z" fill="#BA8FD1"/>
<path transform="translate(839,1358)" d="m0 0 2 1-2 1z" fill="#BA8FD1"/>
<path transform="translate(843,1354)" d="m0 0 2 1-2 1z" fill="#BA8FD1"/>
<path transform="translate(847,1350)" d="m0 0 2 1-2 1z" fill="#BA8FD1"/>
<path transform="translate(851,1346)" d="m0 0 2 1-2 1z" fill="#BA8FD1"/>
<path transform="translate(855,1342)" d="m0 0 2 1-2 1z" fill="#BA8FD1"/>
<path transform="translate(859,1338)" d="m0 0 2 1-2 1z" fill="#BA8FD1"/>
<path transform="translate(863,1334)" d="m0 0 2 1-2 1z" fill="#BA8FD1"/>
<path transform="translate(867,1330)" d="m0 0 2 1-2 1z" fill="#BA8FD1"/>
<path transform="translate(871,1326)" d="m0 0 2 1-2 1z" fill="#BA8FD1"/>
<path transform="translate(879,1318)" d="m0 0 2 1-2 1z" fill="#BA8FD1"/>
<path transform="translate(883,1314)" d="m0 0 2 1-2 1z" fill="#BA8FD1"/>
<path transform="translate(887,1310)" d="m0 0 2 1-2 1z" fill="#BA8FD1"/>
<path transform="translate(891,1306)" d="m0 0 2 1-2 1z" fill="#BA8FD1"/>
<path transform="translate(895,1302)" d="m0 0 2 1-2 1z" fill="#BA8FD1"/>
<path transform="translate(903,1294)" d="m0 0 2 1-2 1z" fill="#BA8FD1"/>
<path transform="translate(907,1290)" d="m0 0 2 1-2 1z" fill="#BA8FD1"/>
<path transform="translate(915,1282)" d="m0 0 2 1-2 1z" fill="#BA8FD1"/>
<path transform="translate(919,1278)" d="m0 0 2 1-2 1z" fill="#BA8FD1"/>
<path transform="translate(923,1274)" d="m0 0 2 1-2 1z" fill="#BA8FD1"/>
<path transform="translate(927,1270)" d="m0 0 2 1-2 1z" fill="#BA8FD1"/>
<path transform="translate(931,1266)" d="m0 0 2 1-2 1z" fill="#BA8FD1"/>
<path transform="translate(935,1262)" d="m0 0 2 1-2 1z" fill="#BA8FD1"/>
<path transform="translate(939,1258)" d="m0 0 2 1-2 1z" fill="#BA8FD1"/>
<path transform="translate(943,1254)" d="m0 0 2 1-2 1z" fill="#BA8FD1"/>
<path transform="translate(947,1250)" d="m0 0 2 1-2 1z" fill="#BA8FD1"/>
<path transform="translate(951,1246)" d="m0 0 2 1-2 1z" fill="#BA8FD1"/>
<path transform="translate(955,1242)" d="m0 0 2 1-2 1z" fill="#BA8FD1"/>
<path transform="translate(959,1238)" d="m0 0 2 1-2 1z" fill="#BA8FD1"/>
<path transform="translate(963,1234)" d="m0 0 2 1-2 1z" fill="#BA8FD1"/>
<path transform="translate(967,1230)" d="m0 0 2 1-2 1z" fill="#BA8FD1"/>
<path transform="translate(971,1226)" d="m0 0 2 1-2 1z" fill="#BA8FD1"/>
<path transform="translate(975,1222)" d="m0 0 2 1-2 1z" fill="#BA8FD1"/>
<path transform="translate(979,1218)" d="m0 0 2 1-2 1z" fill="#BA8FD1"/>
<path transform="translate(983,1214)" d="m0 0 2 1-2 1z" fill="#BA8FD1"/>
<path transform="translate(987,1210)" d="m0 0 2 1-2 1z" fill="#BA8FD1"/>
<path transform="translate(991,1206)" d="m0 0 2 1-2 1z" fill="#BA8FD1"/>
<path transform="translate(995,1202)" d="m0 0 2 1-2 1z" fill="#BA8FD1"/>
<path transform="translate(999,1198)" d="m0 0 2 1-2 1z" fill="#BA8FD1"/>
<path transform="translate(1e3 1194)" d="m0 0 2 1-2 1z" fill="#BA8FD1"/>
<path transform="translate(1007,1190)" d="m0 0 2 1-2 1z" fill="#BA8FD1"/>
<path transform="translate(1011,1186)" d="m0 0 2 1-2 1z" fill="#BA8FD1"/>
<path transform="translate(1015,1182)" d="m0 0 2 1-2 1z" fill="#BA8FD1"/>
<path transform="translate(1019,1178)" d="m0 0 2 1-2 1z" fill="#BA8FD1"/>
<path transform="translate(1023,1174)" d="m0 0 2 1-2 1z" fill="#BA8FD1"/>
<path transform="translate(1027,1170)" d="m0 0 2 1-2 1z" fill="#BA8FD1"/>
<path transform="translate(1031,1166)" d="m0 0 2 1-2 1z" fill="#BA8FD1"/>
<path transform="translate(1035,1162)" d="m0 0 2 1-2 1z" fill="#BA8FD1"/>
<path transform="translate(1039,1158)" d="m0 0 2 1-2 1z" fill="#BA8FD1"/>
<path transform="translate(1043,1154)" d="m0 0 2 1-2 1z" fill="#BA8FD1"/>
<path transform="translate(1047,1150)" d="m0 0 2 1-2 1z" fill="#BA8FD1"/>
<path transform="translate(1051,1146)" d="m0 0 2 1-2 1z" fill="#BA8FD1"/>
<path transform="translate(1055,1142)" d="m0 0 2 1-2 1z" fill="#BA8FD1"/>
<path transform="translate(1059,1138)" d="m0 0 2 1-2 1z" fill="#BA8FD1"/>
<path transform="translate(1063,1134)" d="m0 0 2 1-2 1z" fill="#BA8FD1"/>
<path transform="translate(1067,1130)" d="m0 0 2 1-2 1z" fill="#BA8FD1"/>
<path transform="translate(1071,1126)" d="m0 0 2 1-2 1z" fill="#BA8FD1"/>
<path transform="translate(1099,1098)" d="m0 0 2 1-2 1z" fill="#BA8FD1"/>
<path transform="translate(1163,1029)" d="m0 0" fill="#BA8FD1"/>
<path transform="translate(1172,1006)" d="m0 0 1 2-2-1z" fill="#BA8FD1"/>
<path transform="translate(1187,990)" d="m0 0 2 1-2 1z" fill="#BA8FD1"/>
<path transform="translate(1194,985)" d="m0 0 2 2h-2z" fill="#BA8FD1"/>
<path transform="translate(1188,985)" d="m0 0h2l-1 2z" fill="#BA8FD1"/>
<path transform="translate(1207,980)" d="m0 0 2 1-2 1z" fill="#BA8FD1"/>
<path transform="translate(1220,956)" d="m0 0 1 2-2-1z" fill="#BA8FD1"/>
<path transform="translate(1049,762)" d="m0 0 3 1z" fill="#BA8FD1"/>
<path transform="translate(921,633)" d="m0 0 2 2h-2z" fill="#BA8FD1"/>
<path transform="translate(1497,482)" d="m0 0h2l-1 2z" fill="#FEFEFE"/>
<path transform="translate(1493,478)" d="m0 0h2l-1 2z" fill="#FEFEFE"/>
<path transform="translate(1489,474)" d="m0 0h2l-1 2z" fill="#FEFEFE"/>
<path transform="translate(1481,466)" d="m0 0h2l-1 2z" fill="#FEFEFE"/>
<path transform="translate(723,422)" d="m0 0 2 2h-2z" fill="#BA8FD1"/>
<path transform="translate(457,1743)" d="m0 0 2 1z" fill="#BA8FD1"/>
<path transform="translate(441,1734)" d="m0 0" fill="#BA8FD1"/>
<path transform="translate(432,1729)" d="m0 0 2 1z" fill="#BA8FD1"/>
<path transform="translate(435,1726)" d="m0 0" fill="#BA8FD1"/>
<path transform="translate(454,1725)" d="m0 0 2 1z" fill="#BA8FD1"/>
<path transform="translate(474,1717)" d="m0 0 2 1z" fill="#BA8FD1"/>
<path transform="translate(491,1706)" d="m0 0 2 1z" fill="#BA8FD1"/>
<path transform="translate(519,1678)" d="m0 0" fill="#BA8FD1"/>
<path transform="translate(639,1558)" d="m0 0" fill="#BA8FD1"/>
<path transform="translate(603,1553)" d="m0 0 2 1z" fill="#BA8FD1"/>
<path transform="translate(607,1549)" d="m0 0 2 1z" fill="#BA8FD1"/>
<path transform="translate(611,1545)" d="m0 0 2 1z" fill="#BA8FD1"/>
<path transform="translate(627,1529)" d="m0 0 2 1z" fill="#BA8FD1"/>
<path transform="translate(679,1518)" d="m0 0" fill="#BA8FD1"/>
<path transform="translate(647,1509)" d="m0 0 2 1z" fill="#BA8FD1"/>
<path transform="translate(651,1505)" d="m0 0 2 1z" fill="#BA8FD1"/>
<path transform="translate(695,1502)" d="m0 0" fill="#BA8FD1"/>
<path transform="translate(707,1490)" d="m0 0" fill="#BA8FD1"/>
<path transform="translate(671,1485)" d="m0 0 2 1z" fill="#BA8FD1"/>
<path transform="translate(715,1441)" d="m0 0 2 1z" fill="#BA8FD1"/>
<path transform="translate(739,1417)" d="m0 0 2 1z" fill="#BA8FD1"/>
<path transform="translate(795,1361)" d="m0 0 2 1z" fill="#BA8FD1"/>
<path transform="translate(799,1357)" d="m0 0 2 1z" fill="#BA8FD1"/>
<path transform="translate(803,1353)" d="m0 0 2 1z" fill="#BA8FD1"/>
<path transform="translate(807,1349)" d="m0 0 2 1z" fill="#BA8FD1"/>
<path transform="translate(815,1341)" d="m0 0 2 1z" fill="#BA8FD1"/>
<path transform="translate(875,1322)" d="m0 0" fill="#BA8FD1"/>
<path transform="translate(839,1317)" d="m0 0 2 1z" fill="#BA8FD1"/>
<path transform="translate(843,1313)" d="m0 0 2 1z" fill="#BA8FD1"/>
<path transform="translate(847,1309)" d="m0 0 2 1z" fill="#BA8FD1"/>
<path transform="translate(899,1298)" d="m0 0" fill="#BA8FD1"/>
<path transform="translate(859,1297)" d="m0 0 2 1z" fill="#BA8FD1"/>
<path transform="translate(863,1293)" d="m0 0 2 1z" fill="#BA8FD1"/>
<path transform="translate(867,1289)" d="m0 0 2 1z" fill="#BA8FD1"/>
<path transform="translate(911,1286)" d="m0 0" fill="#BA8FD1"/>
<path transform="translate(871,1285)" d="m0 0 2 1z" fill="#BA8FD1"/>
<path transform="translate(875,1281)" d="m0 0 2 1z" fill="#BA8FD1"/>
<path transform="translate(879,1277)" d="m0 0 2 1z" fill="#BA8FD1"/>
<path transform="translate(903,1253)" d="m0 0 2 1z" fill="#BA8FD1"/>
<path transform="translate(927,1229)" d="m0 0 2 1z" fill="#BA8FD1"/>
<path transform="translate(967,1189)" d="m0 0 2 1z" fill="#BA8FD1"/>
<path transform="translate(971,1185)" d="m0 0 2 1z" fill="#BA8FD1"/>
<path transform="translate(975,1181)" d="m0 0 2 1z" fill="#BA8FD1"/>
<path transform="translate(979,1177)" d="m0 0 2 1z" fill="#BA8FD1"/>
<path transform="translate(987,1169)" d="m0 0 2 1z" fill="#BA8FD1"/>
<path transform="translate(991,1165)" d="m0 0 2 1z" fill="#BA8FD1"/>
<path transform="translate(995,1161)" d="m0 0 2 1z" fill="#BA8FD1"/>
<path transform="translate(1023,1133)" d="m0 0 2 1z" fill="#BA8FD1"/>
<path transform="translate(1027,1129)" d="m0 0 2 1z" fill="#BA8FD1"/>
<path transform="translate(1031,1125)" d="m0 0 2 1z" fill="#BA8FD1"/>
<path transform="translate(1035,1121)" d="m0 0 2 1z" fill="#BA8FD1"/>
<path transform="translate(1039,1117)" d="m0 0 2 1z" fill="#BA8FD1"/>
<path transform="translate(1043,1113)" d="m0 0 2 1z" fill="#BA8FD1"/>
<path transform="translate(1095,1102)" d="m0 0" fill="#BA8FD1"/>
<path transform="translate(1059,1097)" d="m0 0 2 1z" fill="#BA8FD1"/>
<path transform="translate(1063,1093)" d="m0 0 2 1z" fill="#BA8FD1"/>
<path transform="translate(1111,1086)" d="m0 0 2 1z" fill="#BA8FD1"/>
<path transform="translate(1119,1078)" d="m0 0 2 1z" fill="#BA8FD1"/>
<path transform="translate(1155,1036)" d="m0 0 2 1z" fill="#BA8FD1"/>
<path transform="translate(1222,988)" d="m0 0" fill="#BA8FD1"/>
<path transform="translate(1207,984)" d="m0 0 2 1z" fill="#BA8FD1"/>
<path transform="translate(1200,984)" d="m0 0 2 1z" fill="#BA8FD1"/>
<path transform="translate(1216,962)" d="m0 0 2 1z" fill="#BA8FD1"/>
<path transform="translate(1218,961)" d="m0 0 2 1z" fill="#BA8FD1"/>
<path transform="translate(1220,950)" d="m0 0" fill="#BA8FD1"/>
<path transform="translate(1212,926)" d="m0 0" fill="#BA8FD1"/>
<path transform="translate(1167,875)" d="m0 0 2 1z" fill="#BA8FD1"/>
<path transform="translate(1159,866)" d="m0 0" fill="#BA8FD1"/>
<path transform="translate(1155,862)" d="m0 0" fill="#BA8FD1"/>
<path transform="translate(1143,853)" d="m0 0" fill="#BA8FD1"/>
<path transform="translate(1145,845)" d="m0 0 2 1z" fill="#BA8FD1"/>
<path transform="translate(1141,841)" d="m0 0 2 1z" fill="#BA8FD1"/>
<path transform="translate(1101,801)" d="m0 0 2 1z" fill="#BA8FD1"/>
<path transform="translate(1085,785)" d="m0 0 2 1z" fill="#BA8FD1"/>
<path transform="translate(1081,781)" d="m0 0 2 1z" fill="#BA8FD1"/>
<path transform="translate(1077,777)" d="m0 0 2 1z" fill="#BA8FD1"/>
<path transform="translate(1057,757)" d="m0 0 2 1z" fill="#BA8FD1"/>
<path transform="translate(1053,753)" d="m0 0 2 1z" fill="#BA8FD1"/>
<path transform="translate(1049,749)" d="m0 0 2 1z" fill="#BA8FD1"/>
<path transform="translate(1041,741)" d="m0 0 2 1z" fill="#BA8FD1"/>
<path transform="translate(1037,737)" d="m0 0 2 1z" fill="#BA8FD1"/>
<path transform="translate(1021,734)" d="m0 0 2 1z" fill="#BA8FD1"/>
<path transform="translate(1017,730)" d="m0 0 2 1z" fill="#BA8FD1"/>
<path transform="translate(1013,726)" d="m0 0 2 1z" fill="#BA8FD1"/>
<path transform="translate(1025,725)" d="m0 0 2 1z" fill="#BA8FD1"/>
<path transform="translate(1021,721)" d="m0 0 2 1z" fill="#BA8FD1"/>
<path transform="translate(1017,717)" d="m0 0 2 1z" fill="#BA8FD1"/>
<path transform="translate(1013,713)" d="m0 0 2 1z" fill="#BA8FD1"/>
<path transform="translate(1009,709)" d="m0 0 2 1z" fill="#BA8FD1"/>
<path transform="translate(993,693)" d="m0 0 2 1z" fill="#BA8FD1"/>
<path transform="translate(989,689)" d="m0 0 2 1z" fill="#BA8FD1"/>
<path transform="translate(973,686)" d="m0 0 2 1z" fill="#BA8FD1"/>
<path transform="translate(985,685)" d="m0 0 2 1z" fill="#BA8FD1"/>
<path transform="translate(969,682)" d="m0 0 2 1z" fill="#BA8FD1"/>
<path transform="translate(981,681)" d="m0 0 2 1z" fill="#BA8FD1"/>
<path transform="translate(965,678)" d="m0 0 2 1z" fill="#BA8FD1"/>
<path transform="translate(965,665)" d="m0 0 2 1z" fill="#BA8FD1"/>
<path transform="translate(949,662)" d="m0 0 2 1z" fill="#BA8FD1"/>
<path transform="translate(961,661)" d="m0 0 2 1z" fill="#BA8FD1"/>
<path transform="translate(957,657)" d="m0 0 2 1z" fill="#BA8FD1"/>
<path transform="translate(949,649)" d="m0 0 2 1z" fill="#BA8FD1"/>
<path transform="translate(933,646)" d="m0 0 2 1z" fill="#BA8FD1"/>
<path transform="translate(945,645)" d="m0 0 2 1z" fill="#BA8FD1"/>
<path transform="translate(941,641)" d="m0 0 2 1z" fill="#BA8FD1"/>
<path transform="translate(937,637)" d="m0 0 2 1z" fill="#BA8FD1"/>
<path transform="translate(933,633)" d="m0 0 2 1z" fill="#BA8FD1"/>
<path transform="translate(921,621)" d="m0 0 2 1z" fill="#BA8FD1"/>
<path transform="translate(917,617)" d="m0 0 2 1z" fill="#BA8FD1"/>
<path transform="translate(901,614)" d="m0 0 2 1z" fill="#BA8FD1"/>
<path transform="translate(913,613)" d="m0 0 2 1z" fill="#BA8FD1"/>
<path transform="translate(893,606)" d="m0 0 2 1z" fill="#BA8FD1"/>
<path transform="translate(889,602)" d="m0 0 2 1z" fill="#BA8FD1"/>
<path transform="translate(885,598)" d="m0 0 2 1z" fill="#BA8FD1"/>
<path transform="translate(897,597)" d="m0 0 2 1z" fill="#BA8FD1"/>
<path transform="translate(881,594)" d="m0 0 2 1z" fill="#BA8FD1"/>
<path transform="translate(893,593)" d="m0 0 2 1z" fill="#BA8FD1"/>
<path transform="translate(889,589)" d="m0 0 2 1z" fill="#BA8FD1"/>
<path transform="translate(885,585)" d="m0 0 2 1z" fill="#BA8FD1"/>
<path transform="translate(881,581)" d="m0 0 2 1z" fill="#BA8FD1"/>
<path transform="translate(877,577)" d="m0 0 2 1z" fill="#BA8FD1"/>
<path transform="translate(861,561)" d="m0 0 2 1z" fill="#BA8FD1"/>
<path transform="translate(857,557)" d="m0 0 2 1z" fill="#BA8FD1"/>
<path transform="translate(853,553)" d="m0 0 2 1z" fill="#BA8FD1"/>
<path transform="translate(837,550)" d="m0 0 2 1z" fill="#BA8FD1"/>
<path transform="translate(849,549)" d="m0 0 2 1z" fill="#BA8FD1"/>
<path transform="translate(845,545)" d="m0 0 2 1z" fill="#BA8FD1"/>
<path transform="translate(829,542)" d="m0 0 2 1z" fill="#BA8FD1"/>
<path transform="translate(841,541)" d="m0 0 2 1z" fill="#BA8FD1"/>
<path transform="translate(837,537)" d="m0 0 2 1z" fill="#BA8FD1"/>
<path transform="translate(829,529)" d="m0 0 2 1z" fill="#BA8FD1"/>
<path transform="translate(825,525)" d="m0 0 2 1z" fill="#BA8FD1"/>
<path transform="translate(821,521)" d="m0 0 2 1z" fill="#BA8FD1"/>
<path transform="translate(817,517)" d="m0 0 2 1z" fill="#BA8FD1"/>
<path transform="translate(715,429)" d="m0 0" fill="#BA8FD1"/>
<path transform="translate(706,400)" d="m0 0" fill="#BA8FD1"/>
<path transform="translate(838,1751)" d="m0 0" fill="#FEFEFE"/>
<path transform="translate(446,1742)" d="m0 0" fill="#BA8FD1"/>
<path transform="translate(443,1740)" d="m0 0" fill="#BA8FD1"/>
<path transform="translate(477,1736)" d="m0 0" fill="#BA8FD1"/>
<path transform="translate(478,1735)" d="m0 0" fill="#BA8FD1"/>
<path transform="translate(454,1732)" d="m0 0" fill="#BA8FD1"/>
<path transform="translate(434,1732)" d="m0 0" fill="#BA8FD1"/>
<path transform="translate(482,1731)" d="m0 0" fill="#BA8FD1"/>
<path transform="translate(425,1731)" d="m0 0" fill="#BA8FD1"/>
<path transform="translate(428,1730)" d="m0 0" fill="#BA8FD1"/>
<path transform="translate(427,1729)" d="m0 0" fill="#BA8FD1"/>
<path transform="translate(428,1728)" d="m0 0" fill="#BA8FD1"/>
<path transform="translate(433,1727)" d="m0 0" fill="#BA8FD1"/>
<path transform="translate(429,1727)" d="m0 0" fill="#BA8FD1"/>
<path transform="translate(491,1724)" d="m0 0" fill="#BA8FD1"/>
<path transform="translate(433,1723)" d="m0 0" fill="#BA8FD1"/>
<path transform="translate(466,1722)" d="m0 0" fill="#BA8FD1"/>
<path transform="translate(436,1722)" d="m0 0" fill="#BA8FD1"/>
<path transform="translate(435,1721)" d="m0 0" fill="#BA8FD1"/>
<path transform="translate(437,1719)" d="m0 0" fill="#BA8FD1"/>
<path transform="translate(500,1718)" d="m0 0" fill="#BA8FD1"/>
<path transform="translate(476,1718)" d="m0 0" fill="#BA8FD1"/>
<path transform="translate(467,1718)" d="m0 0" fill="#BA8FD1"/>
<path transform="translate(439,1717)" d="m0 0" fill="#BA8FD1"/>
<path transform="translate(501,1716)" d="m0 0" fill="#BA8FD1"/>
<path transform="translate(482,1716)" d="m0 0" fill="#BA8FD1"/>
<path transform="translate(502,1715)" d="m0 0" fill="#BA8FD1"/>
<path transform="translate(441,1715)" d="m0 0" fill="#BA8FD1"/>
<path transform="translate(443,1713)" d="m0 0" fill="#BA8FD1"/>
<path transform="translate(505,1712)" d="m0 0" fill="#BA8FD1"/>
<path transform="translate(502,1712)" d="m0 0" fill="#BA8FD1"/>
<path transform="translate(506,1711)" d="m0 0" fill="#BA8FD1"/>
<path transform="translate(509,1708)" d="m0 0" fill="#BA8FD1"/>
<path transform="translate(506,1708)" d="m0 0" fill="#BA8FD1"/>
<path transform="translate(510,1707)" d="m0 0" fill="#BA8FD1"/>
<path transform="translate(511,1705)" d="m0 0" fill="#BA8FD1"/>
<path transform="translate(513,1704)" d="m0 0" fill="#BA8FD1"/>
<path transform="translate(510,1704)" d="m0 0" fill="#BA8FD1"/>
<path transform="translate(501,1703)" d="m0 0" fill="#BA8FD1"/>
<path transform="translate(515,1701)" d="m0 0" fill="#BA8FD1"/>
<path transform="translate(517,1700)" d="m0 0" fill="#BA8FD1"/>
<path transform="translate(514,1700)" d="m0 0" fill="#BA8FD1"/>
<path transform="translate(499,1699)" d="m0 0" fill="#BA8FD1"/>
<path transform="translate(520,1698)" d="m0 0" fill="#BA8FD1"/>
<path transform="translate(500,1698)" d="m0 0" fill="#BA8FD1"/>
<path transform="translate(518,1696)" d="m0 0" fill="#BA8FD1"/>
<path transform="translate(503,1695)" d="m0 0" fill="#BA8FD1"/>
<path transform="translate(524,1694)" d="m0 0" fill="#BA8FD1"/>
<path transform="translate(504,1694)" d="m0 0" fill="#BA8FD1"/>
<path transform="translate(522,1692)" d="m0 0" fill="#BA8FD1"/>
<path transform="translate(507,1691)" d="m0 0" fill="#BA8FD1"/>
<path transform="translate(528,1690)" d="m0 0" fill="#BA8FD1"/>
<path transform="translate(508,1690)" d="m0 0" fill="#BA8FD1"/>
<path transform="translate(526,1688)" d="m0 0" fill="#BA8FD1"/>
<path transform="translate(511,1687)" d="m0 0" fill="#BA8FD1"/>
<path transform="translate(532,1686)" d="m0 0" fill="#BA8FD1"/>
<path transform="translate(512,1686)" d="m0 0" fill="#BA8FD1"/>
<path transform="translate(530,1684)" d="m0 0" fill="#BA8FD1"/>
<path transform="translate(515,1683)" d="m0 0" fill="#BA8FD1"/>
<path transform="translate(536,1682)" d="m0 0" fill="#BA8FD1"/>
<path transform="translate(516,1682)" d="m0 0" fill="#BA8FD1"/>
<path transform="translate(534,1680)" d="m0 0" fill="#BA8FD1"/>
<path transform="translate(540,1678)" d="m0 0" fill="#BA8FD1"/>
<path transform="translate(538,1676)" d="m0 0" fill="#BA8FD1"/>
<path transform="translate(544,1674)" d="m0 0" fill="#BA8FD1"/>
<path transform="translate(548,1670)" d="m0 0" fill="#BA8FD1"/>
<path transform="translate(552,1666)" d="m0 0" fill="#BA8FD1"/>
<path transform="translate(556,1662)" d="m0 0" fill="#BA8FD1"/>
<path transform="translate(560,1658)" d="m0 0" fill="#BA8FD1"/>
<path transform="translate(564,1654)" d="m0 0" fill="#BA8FD1"/>
<path transform="translate(547,1654)" d="m0 0" fill="#BA8FD1"/>
<path transform="translate(503,1653)" d="m0 0" fill="#BA8FD1"/>
<path transform="translate(568,1650)" d="m0 0" fill="#BA8FD1"/>
<path transform="translate(554,1649)" d="m0 0" fill="#BA8FD1"/>
<path transform="translate(507,1649)" d="m0 0" fill="#BA8FD1"/>
<path transform="translate(572,1646)" d="m0 0" fill="#BA8FD1"/>
<path transform="translate(511,1645)" d="m0 0" fill="#BA8FD1"/>
<path transform="translate(576,1642)" d="m0 0" fill="#BA8FD1"/>
<path transform="translate(515,1641)" d="m0 0" fill="#BA8FD1"/>
<path transform="translate(580,1638)" d="m0 0" fill="#BA8FD1"/>
<path transform="translate(566,1637)" d="m0 0" fill="#BA8FD1"/>
<path transform="translate(519,1637)" d="m0 0" fill="#BA8FD1"/>
<path transform="translate(584,1634)" d="m0 0" fill="#BA8FD1"/>
<path transform="translate(570,1633)" d="m0 0" fill="#BA8FD1"/>
<path transform="translate(523,1633)" d="m0 0" fill="#BA8FD1"/>
<path transform="translate(588,1630)" d="m0 0" fill="#BA8FD1"/>
<path transform="translate(574,1629)" d="m0 0" fill="#BA8FD1"/>
<path transform="translate(527,1629)" d="m0 0" fill="#BA8FD1"/>
<path transform="translate(592,1626)" d="m0 0" fill="#BA8FD1"/>
<path transform="translate(578,1625)" d="m0 0" fill="#BA8FD1"/>
<path transform="translate(531,1625)" d="m0 0" fill="#BA8FD1"/>
<path transform="translate(596,1622)" d="m0 0" fill="#BA8FD1"/>
<path transform="translate(582,1621)" d="m0 0" fill="#BA8FD1"/>
<path transform="translate(535,1621)" d="m0 0" fill="#BA8FD1"/>
<path transform="translate(600,1618)" d="m0 0" fill="#BA8FD1"/>
<path transform="translate(586,1617)" d="m0 0" fill="#BA8FD1"/>
<path transform="translate(539,1617)" d="m0 0" fill="#BA8FD1"/>
<path transform="translate(604,1614)" d="m0 0" fill="#BA8FD1"/>
<path transform="translate(590,1613)" d="m0 0" fill="#BA8FD1"/>
<path transform="translate(543,1613)" d="m0 0" fill="#BA8FD1"/>
<path transform="translate(608,1610)" d="m0 0" fill="#BA8FD1"/>
<path transform="translate(594,1609)" d="m0 0" fill="#BA8FD1"/>
<path transform="translate(547,1609)" d="m0 0" fill="#BA8FD1"/>
<path transform="translate(612,1606)" d="m0 0" fill="#BA8FD1"/>
<path transform="translate(598,1605)" d="m0 0" fill="#BA8FD1"/>
<path transform="translate(551,1605)" d="m0 0" fill="#BA8FD1"/>
<path transform="translate(616,1602)" d="m0 0" fill="#BA8FD1"/>
<path transform="translate(602,1601)" d="m0 0" fill="#BA8FD1"/>
<path transform="translate(555,1601)" d="m0 0" fill="#BA8FD1"/>
<path transform="translate(620,1598)" d="m0 0" fill="#BA8FD1"/>
<path transform="translate(606,1597)" d="m0 0" fill="#BA8FD1"/>
<path transform="translate(559,1597)" d="m0 0" fill="#BA8FD1"/>
<path transform="translate(624,1594)" d="m0 0" fill="#BA8FD1"/>
<path transform="translate(610,1593)" d="m0 0" fill="#BA8FD1"/>
<path transform="translate(563,1593)" d="m0 0" fill="#BA8FD1"/>
<path transform="translate(628,1590)" d="m0 0" fill="#BA8FD1"/>
<path transform="translate(614,1589)" d="m0 0" fill="#BA8FD1"/>
<path transform="translate(567,1589)" d="m0 0" fill="#BA8FD1"/>
<path transform="translate(632,1586)" d="m0 0" fill="#BA8FD1"/>
<path transform="translate(571,1585)" d="m0 0" fill="#BA8FD1"/>
<path transform="translate(636,1582)" d="m0 0" fill="#BA8FD1"/>
<path transform="translate(575,1581)" d="m0 0" fill="#BA8FD1"/>
<path transform="translate(640,1578)" d="m0 0" fill="#BA8FD1"/>
<path transform="translate(579,1577)" d="m0 0" fill="#BA8FD1"/>
<path transform="translate(644,1574)" d="m0 0" fill="#BA8FD1"/>
<path transform="translate(583,1573)" d="m0 0" fill="#BA8FD1"/>
<path transform="translate(648,1570)" d="m0 0" fill="#BA8FD1"/>
<path transform="translate(587,1569)" d="m0 0" fill="#BA8FD1"/>
<path transform="translate(652,1566)" d="m0 0" fill="#BA8FD1"/>
<path transform="translate(591,1565)" d="m0 0" fill="#BA8FD1"/>
<path transform="translate(656,1562)" d="m0 0" fill="#BA8FD1"/>
<path transform="translate(595,1561)" d="m0 0" fill="#BA8FD1"/>
<path transform="translate(660,1558)" d="m0 0" fill="#BA8FD1"/>
<path transform="translate(599,1557)" d="m0 0" fill="#BA8FD1"/>
<path transform="translate(664,1554)" d="m0 0" fill="#BA8FD1"/>
<path transform="translate(668,1550)" d="m0 0" fill="#BA8FD1"/>
<path transform="translate(672,1546)" d="m0 0" fill="#BA8FD1"/>
<path transform="translate(676,1542)" d="m0 0" fill="#BA8FD1"/>
<path transform="translate(615,1541)" d="m0 0" fill="#BA8FD1"/>
<path transform="translate(680,1538)" d="m0 0" fill="#BA8FD1"/>
<path transform="translate(619,1537)" d="m0 0" fill="#BA8FD1"/>
<path transform="translate(684,1534)" d="m0 0" fill="#BA8FD1"/>
<path transform="translate(688,1530)" d="m0 0" fill="#BA8FD1"/>
<path transform="translate(692,1526)" d="m0 0" fill="#BA8FD1"/>
<path transform="translate(696,1522)" d="m0 0" fill="#BA8FD1"/>
<path transform="translate(635,1521)" d="m0 0" fill="#BA8FD1"/>
<path transform="translate(700,1518)" d="m0 0" fill="#BA8FD1"/>
<path transform="translate(639,1517)" d="m0 0" fill="#BA8FD1"/>
<path transform="translate(704,1514)" d="m0 0" fill="#BA8FD1"/>
<path transform="translate(643,1513)" d="m0 0" fill="#BA8FD1"/>
<path transform="translate(708,1510)" d="m0 0" fill="#BA8FD1"/>
<path transform="translate(712,1506)" d="m0 0" fill="#BA8FD1"/>
<path transform="translate(716,1502)" d="m0 0" fill="#BA8FD1"/>
<path transform="translate(703,1501)" d="m0 0" fill="#BA8FD1"/>
<path transform="translate(655,1501)" d="m0 0" fill="#BA8FD1"/>
<path transform="translate(720,1498)" d="m0 0" fill="#BA8FD1"/>
<path transform="translate(659,1497)" d="m0 0" fill="#BA8FD1"/>
<path transform="translate(724,1494)" d="m0 0" fill="#BA8FD1"/>
<path transform="translate(663,1493)" d="m0 0" fill="#BA8FD1"/>
<path transform="translate(728,1490)" d="m0 0" fill="#BA8FD1"/>
<path transform="translate(667,1489)" d="m0 0" fill="#BA8FD1"/>
<path transform="translate(732,1486)" d="m0 0" fill="#BA8FD1"/>
<path transform="translate(736,1482)" d="m0 0" fill="#BA8FD1"/>
<path transform="translate(723,1481)" d="m0 0" fill="#BA8FD1"/>
<path transform="translate(740,1478)" d="m0 0" fill="#BA8FD1"/>
<path transform="translate(679,1477)" d="m0 0" fill="#BA8FD1"/>
<path transform="translate(744,1474)" d="m0 0" fill="#BA8FD1"/>
<path transform="translate(683,1473)" d="m0 0" fill="#BA8FD1"/>
<path transform="translate(748,1470)" d="m0 0" fill="#BA8FD1"/>
<path transform="translate(735,1469)" d="m0 0" fill="#BA8FD1"/>
<path transform="translate(687,1469)" d="m0 0" fill="#BA8FD1"/>
<path transform="translate(752,1466)" d="m0 0" fill="#BA8FD1"/>
<path transform="translate(739,1465)" d="m0 0" fill="#BA8FD1"/>
<path transform="translate(691,1465)" d="m0 0" fill="#BA8FD1"/>
<path transform="translate(756,1462)" d="m0 0" fill="#BA8FD1"/>
<path transform="translate(743,1461)" d="m0 0" fill="#BA8FD1"/>
<path transform="translate(760,1458)" d="m0 0" fill="#BA8FD1"/>
<path transform="translate(747,1457)" d="m0 0" fill="#BA8FD1"/>
<path transform="translate(764,1454)" d="m0 0" fill="#BA8FD1"/>
<path transform="translate(751,1453)" d="m0 0" fill="#BA8FD1"/>
<path transform="translate(768,1450)" d="m0 0" fill="#BA8FD1"/>
<path transform="translate(707,1449)" d="m0 0" fill="#BA8FD1"/>
<path transform="translate(772,1446)" d="m0 0" fill="#BA8FD1"/>
<path transform="translate(759,1445)" d="m0 0" fill="#BA8FD1"/>
<path transform="translate(711,1445)" d="m0 0" fill="#BA8FD1"/>
<path transform="translate(776,1442)" d="m0 0" fill="#BA8FD1"/>
<path transform="translate(763,1441)" d="m0 0" fill="#BA8FD1"/>
<path transform="translate(780,1438)" d="m0 0" fill="#BA8FD1"/>
<path transform="translate(767,1437)" d="m0 0" fill="#BA8FD1"/>
<path transform="translate(719,1437)" d="m0 0" fill="#BA8FD1"/>
<path transform="translate(784,1434)" d="m0 0" fill="#BA8FD1"/>
<path transform="translate(771,1433)" d="m0 0" fill="#BA8FD1"/>
<path transform="translate(723,1433)" d="m0 0" fill="#BA8FD1"/>
<path transform="translate(788,1430)" d="m0 0" fill="#BA8FD1"/>
<path transform="translate(727,1429)" d="m0 0" fill="#BA8FD1"/>
<path transform="translate(792,1426)" d="m0 0" fill="#BA8FD1"/>
<path transform="translate(731,1425)" d="m0 0" fill="#BA8FD1"/>
<path transform="translate(796,1422)" d="m0 0" fill="#BA8FD1"/>
<path transform="translate(735,1421)" d="m0 0" fill="#BA8FD1"/>
<path transform="translate(800,1418)" d="m0 0" fill="#BA8FD1"/>
<path transform="translate(804,1414)" d="m0 0" fill="#BA8FD1"/>
<path transform="translate(808,1410)" d="m0 0" fill="#BA8FD1"/>
<path transform="translate(812,1406)" d="m0 0" fill="#BA8FD1"/>
<path transform="translate(816,1402)" d="m0 0" fill="#BA8FD1"/>
<path transform="translate(755,1401)" d="m0 0" fill="#BA8FD1"/>
<path transform="translate(820,1398)" d="m0 0" fill="#BA8FD1"/>
<path transform="translate(824,1394)" d="m0 0" fill="#BA8FD1"/>
<path transform="translate(828,1390)" d="m0 0" fill="#BA8FD1"/>
<path transform="translate(832,1386)" d="m0 0" fill="#BA8FD1"/>
<path transform="translate(771,1385)" d="m0 0" fill="#BA8FD1"/>
<path transform="translate(836,1382)" d="m0 0" fill="#BA8FD1"/>
<path transform="translate(775,1381)" d="m0 0" fill="#BA8FD1"/>
<path transform="translate(840,1378)" d="m0 0" fill="#BA8FD1"/>
<path transform="translate(779,1377)" d="m0 0" fill="#BA8FD1"/>
<path transform="translate(844,1374)" d="m0 0" fill="#BA8FD1"/>
<path transform="translate(783,1373)" d="m0 0" fill="#BA8FD1"/>
<path transform="translate(848,1370)" d="m0 0" fill="#BA8FD1"/>
<path transform="translate(787,1369)" d="m0 0" fill="#BA8FD1"/>
<path transform="translate(852,1366)" d="m0 0" fill="#BA8FD1"/>
<path transform="translate(791,1365)" d="m0 0" fill="#BA8FD1"/>
<path transform="translate(856,1362)" d="m0 0" fill="#BA8FD1"/>
<path transform="translate(860,1358)" d="m0 0" fill="#BA8FD1"/>
<path transform="translate(864,1354)" d="m0 0" fill="#BA8FD1"/>
<path transform="translate(868,1350)" d="m0 0" fill="#BA8FD1"/>
<path transform="translate(872,1346)" d="m0 0" fill="#BA8FD1"/>
<path transform="translate(811,1345)" d="m0 0" fill="#BA8FD1"/>
<path transform="translate(876,1342)" d="m0 0" fill="#BA8FD1"/>
<path transform="translate(880,1338)" d="m0 0" fill="#BA8FD1"/>
<path transform="translate(884,1334)" d="m0 0" fill="#BA8FD1"/>
<path transform="translate(888,1330)" d="m0 0" fill="#BA8FD1"/>
<path transform="translate(892,1326)" d="m0 0" fill="#BA8FD1"/>
<path transform="translate(896,1322)" d="m0 0" fill="#BA8FD1"/>
<path transform="translate(900,1318)" d="m0 0" fill="#BA8FD1"/>
<path transform="translate(904,1314)" d="m0 0" fill="#BA8FD1"/>
<path transform="translate(908,1310)" d="m0 0" fill="#BA8FD1"/>
<path transform="translate(894,1309)" d="m0 0" fill="#BA8FD1"/>
<path transform="translate(912,1306)" d="m0 0" fill="#BA8FD1"/>
<path transform="translate(898,1305)" d="m0 0" fill="#BA8FD1"/>
<path transform="translate(851,1305)" d="m0 0" fill="#BA8FD1"/>
<path transform="translate(916,1302)" d="m0 0" fill="#BA8FD1"/>
<path transform="translate(902,1301)" d="m0 0" fill="#BA8FD1"/>
<path transform="translate(855,1301)" d="m0 0" fill="#BA8FD1"/>
<path transform="translate(920,1298)" d="m0 0" fill="#BA8FD1"/>
<path transform="translate(906,1297)" d="m0 0" fill="#BA8FD1"/>
<path transform="translate(924,1294)" d="m0 0" fill="#BA8FD1"/>
<path transform="translate(910,1293)" d="m0 0" fill="#BA8FD1"/>
<path transform="translate(928,1290)" d="m0 0" fill="#BA8FD1"/>
<path transform="translate(914,1289)" d="m0 0" fill="#BA8FD1"/>
<path transform="translate(932,1286)" d="m0 0" fill="#BA8FD1"/>
<path transform="translate(918,1285)" d="m0 0" fill="#BA8FD1"/>
<path transform="translate(936,1282)" d="m0 0" fill="#BA8FD1"/>
<path transform="translate(922,1281)" d="m0 0" fill="#BA8FD1"/>
<path transform="translate(940,1278)" d="m0 0" fill="#BA8FD1"/>
<path transform="translate(926,1277)" d="m0 0" fill="#BA8FD1"/>
<path transform="translate(944,1274)" d="m0 0" fill="#BA8FD1"/>
<path transform="translate(930,1273)" d="m0 0" fill="#BA8FD1"/>
<path transform="translate(948,1270)" d="m0 0" fill="#BA8FD1"/>
<path transform="translate(934,1269)" d="m0 0" fill="#BA8FD1"/>
<path transform="translate(952,1266)" d="m0 0" fill="#BA8FD1"/>
<path transform="translate(938,1265)" d="m0 0" fill="#BA8FD1"/>
<path transform="translate(956,1262)" d="m0 0" fill="#BA8FD1"/>
<path transform="translate(942,1261)" d="m0 0" fill="#BA8FD1"/>
<path transform="translate(960,1258)" d="m0 0" fill="#BA8FD1"/>
<path transform="translate(946,1257)" d="m0 0" fill="#BA8FD1"/>
<path transform="translate(964,1254)" d="m0 0" fill="#BA8FD1"/>
<path transform="translate(950,1253)" d="m0 0" fill="#BA8FD1"/>
<path transform="translate(968,1250)" d="m0 0" fill="#BA8FD1"/>
<path transform="translate(954,1249)" d="m0 0" fill="#BA8FD1"/>
<path transform="translate(907,1249)" d="m0 0" fill="#BA8FD1"/>
<path transform="translate(972,1246)" d="m0 0" fill="#BA8FD1"/>
<path transform="translate(958,1245)" d="m0 0" fill="#BA8FD1"/>
<path transform="translate(911,1245)" d="m0 0" fill="#BA8FD1"/>
<path transform="translate(976,1242)" d="m0 0" fill="#BA8FD1"/>
<path transform="translate(962,1241)" d="m0 0" fill="#BA8FD1"/>
<path transform="translate(915,1241)" d="m0 0" fill="#BA8FD1"/>
<path transform="translate(980,1238)" d="m0 0" fill="#BA8FD1"/>
<path transform="translate(966,1237)" d="m0 0" fill="#BA8FD1"/>
<path transform="translate(919,1237)" d="m0 0" fill="#BA8FD1"/>
<path transform="translate(984,1234)" d="m0 0" fill="#BA8FD1"/>
<path transform="translate(970,1233)" d="m0 0" fill="#BA8FD1"/>
<path transform="translate(923,1233)" d="m0 0" fill="#BA8FD1"/>
<path transform="translate(988,1230)" d="m0 0" fill="#BA8FD1"/>
<path transform="translate(974,1229)" d="m0 0" fill="#BA8FD1"/>
<path transform="translate(992,1226)" d="m0 0" fill="#BA8FD1"/>
<path transform="translate(978,1225)" d="m0 0" fill="#BA8FD1"/>
<path transform="translate(996,1222)" d="m0 0" fill="#BA8FD1"/>
<path transform="translate(982,1221)" d="m0 0" fill="#BA8FD1"/>
<path transform="translate(1e3 1218)" d="m0 0" fill="#BA8FD1"/>
<path transform="translate(986,1217)" d="m0 0" fill="#BA8FD1"/>
<path transform="translate(1e3 1214)" d="m0 0" fill="#BA8FD1"/>
<path transform="translate(990,1213)" d="m0 0" fill="#BA8FD1"/>
<path transform="translate(945,1211)" d="m0 0" fill="#BA8FD1"/>
<path transform="translate(1008,1210)" d="m0 0" fill="#BA8FD1"/>
<path transform="translate(994,1209)" d="m0 0" fill="#BA8FD1"/>
<path transform="translate(1012,1206)" d="m0 0" fill="#BA8FD1"/>
<path transform="translate(998,1205)" d="m0 0" fill="#BA8FD1"/>
<path transform="translate(1016,1202)" d="m0 0" fill="#BA8FD1"/>
<path transform="translate(1e3 1201)" d="m0 0" fill="#BA8FD1"/>
<path transform="translate(1020,1198)" d="m0 0" fill="#BA8FD1"/>
<path transform="translate(1006,1197)" d="m0 0" fill="#BA8FD1"/>
<path transform="translate(1024,1194)" d="m0 0" fill="#BA8FD1"/>
<path transform="translate(1010,1193)" d="m0 0" fill="#BA8FD1"/>
<path transform="translate(1028,1190)" d="m0 0" fill="#BA8FD1"/>
<path transform="translate(1014,1189)" d="m0 0" fill="#BA8FD1"/>
<path transform="translate(1032,1186)" d="m0 0" fill="#BA8FD1"/>
<path transform="translate(1018,1185)" d="m0 0" fill="#BA8FD1"/>
<path transform="translate(1036,1182)" d="m0 0" fill="#BA8FD1"/>
<path transform="translate(1022,1181)" d="m0 0" fill="#BA8FD1"/>
<path transform="translate(1040,1178)" d="m0 0" fill="#BA8FD1"/>
<path transform="translate(1026,1177)" d="m0 0" fill="#BA8FD1"/>
<path transform="translate(1044,1174)" d="m0 0" fill="#BA8FD1"/>
<path transform="translate(1030,1173)" d="m0 0" fill="#BA8FD1"/>
<path transform="translate(983,1173)" d="m0 0" fill="#BA8FD1"/>
<path transform="translate(1048,1170)" d="m0 0" fill="#BA8FD1"/>
<path transform="translate(1034,1169)" d="m0 0" fill="#BA8FD1"/>
<path transform="translate(1052,1166)" d="m0 0" fill="#BA8FD1"/>
<path transform="translate(1038,1165)" d="m0 0" fill="#BA8FD1"/>
<path transform="translate(1056,1162)" d="m0 0" fill="#BA8FD1"/>
<path transform="translate(1042,1161)" d="m0 0" fill="#BA8FD1"/>
<path transform="translate(1060,1158)" d="m0 0" fill="#BA8FD1"/>
<path transform="translate(1046,1157)" d="m0 0" fill="#BA8FD1"/>
<path transform="translate(1064,1154)" d="m0 0" fill="#BA8FD1"/>
<path transform="translate(1050,1153)" d="m0 0" fill="#BA8FD1"/>
<path transform="translate(1e3 1153)" d="m0 0" fill="#BA8FD1"/>
<path transform="translate(1068,1150)" d="m0 0" fill="#BA8FD1"/>
<path transform="translate(1054,1149)" d="m0 0" fill="#BA8FD1"/>
<path transform="translate(1007,1149)" d="m0 0" fill="#BA8FD1"/>
<path transform="translate(1072,1146)" d="m0 0" fill="#BA8FD1"/>
<path transform="translate(1058,1145)" d="m0 0" fill="#BA8FD1"/>
<path transform="translate(1011,1145)" d="m0 0" fill="#BA8FD1"/>
<path transform="translate(1076,1142)" d="m0 0" fill="#BA8FD1"/>
<path transform="translate(1062,1141)" d="m0 0" fill="#BA8FD1"/>
<path transform="translate(1080,1138)" d="m0 0" fill="#BA8FD1"/>
<path transform="translate(1066,1137)" d="m0 0" fill="#BA8FD1"/>
<path transform="translate(1019,1137)" d="m0 0" fill="#BA8FD1"/>
<path transform="translate(1084,1134)" d="m0 0" fill="#BA8FD1"/>
<path transform="translate(1070,1133)" d="m0 0" fill="#BA8FD1"/>
<path transform="translate(1088,1130)" d="m0 0" fill="#BA8FD1"/>
<path transform="translate(1074,1129)" d="m0 0" fill="#BA8FD1"/>
<path transform="translate(1092,1126)" d="m0 0" fill="#BA8FD1"/>
<path transform="translate(1078,1125)" d="m0 0" fill="#BA8FD1"/>
<path transform="translate(203,1124)" d="m0 0" fill="#FEFEFE"/>
<path transform="translate(1096,1122)" d="m0 0" fill="#BA8FD1"/>
<path transform="translate(1082,1121)" d="m0 0" fill="#BA8FD1"/>
<path transform="translate(1100,1118)" d="m0 0" fill="#BA8FD1"/>
<path transform="translate(1086,1117)" d="m0 0" fill="#BA8FD1"/>
<path transform="translate(1104,1114)" d="m0 0" fill="#BA8FD1"/>
<path transform="translate(1090,1113)" d="m0 0" fill="#BA8FD1"/>
<path transform="translate(1108,1110)" d="m0 0" fill="#BA8FD1"/>
<path transform="translate(1094,1109)" d="m0 0" fill="#BA8FD1"/>
<path transform="translate(1047,1109)" d="m0 0" fill="#BA8FD1"/>
<path transform="translate(1112,1106)" d="m0 0" fill="#BA8FD1"/>
<path transform="translate(1098,1105)" d="m0 0" fill="#BA8FD1"/>
<path transform="translate(1051,1105)" d="m0 0" fill="#BA8FD1"/>
<path transform="translate(1116,1102)" d="m0 0" fill="#BA8FD1"/>
<path transform="translate(1102,1101)" d="m0 0" fill="#BA8FD1"/>
<path transform="translate(1055,1101)" d="m0 0" fill="#BA8FD1"/>
<path transform="translate(1120,1098)" d="m0 0" fill="#BA8FD1"/>
<path transform="translate(1106,1097)" d="m0 0" fill="#BA8FD1"/>
<path transform="translate(1124,1094)" d="m0 0" fill="#BA8FD1"/>
<path transform="translate(1103,1094)" d="m0 0" fill="#BA8FD1"/>
<path transform="translate(1110,1093)" d="m0 0" fill="#BA8FD1"/>
<path transform="translate(1128,1090)" d="m0 0" fill="#BA8FD1"/>
<path transform="translate(1107,1090)" d="m0 0" fill="#BA8FD1"/>
<path transform="translate(1114,1089)" d="m0 0" fill="#BA8FD1"/>
<path transform="translate(1132,1086)" d="m0 0" fill="#BA8FD1"/>
<path transform="translate(1118,1085)" d="m0 0" fill="#BA8FD1"/>
<path transform="translate(1136,1082)" d="m0 0" fill="#BA8FD1"/>
<path transform="translate(1122,1081)" d="m0 0" fill="#BA8FD1"/>
<path transform="translate(1140,1078)" d="m0 0" fill="#BA8FD1"/>
<path transform="translate(1126,1077)" d="m0 0" fill="#BA8FD1"/>
<path transform="translate(1144,1074)" d="m0 0" fill="#BA8FD1"/>
<path transform="translate(1148,1070)" d="m0 0" fill="#BA8FD1"/>
<path transform="translate(1132,1067)" d="m0 0" fill="#BA8FD1"/>
<path transform="translate(1152,1066)" d="m0 0" fill="#BA8FD1"/>
<path transform="translate(1131,1066)" d="m0 0" fill="#BA8FD1"/>
<path transform="translate(1156,1062)" d="m0 0" fill="#BA8FD1"/>
<path transform="translate(1095,1061)" d="m0 0" fill="#BA8FD1"/>
<path transform="translate(1160,1058)" d="m0 0" fill="#BA8FD1"/>
<path transform="translate(1139,1058)" d="m0 0" fill="#BA8FD1"/>
<path transform="translate(1164,1054)" d="m0 0" fill="#BA8FD1"/>
<path transform="translate(1102,1054)" d="m0 0" fill="#BA8FD1"/>
<path transform="translate(1103,1053)" d="m0 0" fill="#BA8FD1"/>
<path transform="translate(1168,1050)" d="m0 0" fill="#BA8FD1"/>
<path transform="translate(1106,1050)" d="m0 0" fill="#BA8FD1"/>
<path transform="translate(1141,1049)" d="m0 0" fill="#BA8FD1"/>
<path transform="translate(1147,1047)" d="m0 0" fill="#BA8FD1"/>
<path transform="translate(1172,1046)" d="m0 0" fill="#BA8FD1"/>
<path transform="translate(1153,1046)" d="m0 0" fill="#BA8FD1"/>
<path transform="translate(1150,1044)" d="m0 0" fill="#BA8FD1"/>
<path transform="translate(1176,1042)" d="m0 0" fill="#BA8FD1"/>
<path transform="translate(1155,1039)" d="m0 0" fill="#BA8FD1"/>
<path transform="translate(1180,1038)" d="m0 0" fill="#BA8FD1"/>
<path transform="translate(1154,1037)" d="m0 0" fill="#BA8FD1"/>
<path transform="translate(1184,1034)" d="m0 0" fill="#BA8FD1"/>
<path transform="translate(1165,1022)" d="m0 0" fill="#BA8FD1"/>
<path transform="translate(1180,1012)" d="m0 0" fill="#BA8FD1"/>
<path transform="translate(1172,1011)" d="m0 0" fill="#BA8FD1"/>
<path transform="translate(1208,1010)" d="m0 0" fill="#BA8FD1"/>
<path transform="translate(1212,1006)" d="m0 0" fill="#BA8FD1"/>
<path transform="translate(1173 1e3)" d="m0 0" fill="#BA8FD1"/>
<path transform="translate(1180 1e3)" d="m0 0" fill="#BA8FD1"/>
<path transform="translate(1214 1e3)" d="m0 0" fill="#BA8FD1"/>
<path transform="translate(1173,999)" d="m0 0" fill="#BA8FD1"/>
<path transform="translate(1185,997)" d="m0 0" fill="#BA8FD1"/>
<path transform="translate(1218,996)" d="m0 0" fill="#BA8FD1"/>
<path transform="translate(1188,996)" d="m0 0" fill="#BA8FD1"/>
<path transform="translate(1186,993)" d="m0 0" fill="#BA8FD1"/>
<path transform="translate(1220,992)" d="m0 0" fill="#BA8FD1"/>
<path transform="translate(1200,992)" d="m0 0" fill="#BA8FD1"/>
<path transform="translate(1198,990)" d="m0 0" fill="#BA8FD1"/>
<path transform="translate(1196,988)" d="m0 0" fill="#BA8FD1"/>
<path transform="translate(1192,986)" d="m0 0" fill="#BA8FD1"/>
<path transform="translate(1226,984)" d="m0 0" fill="#BA8FD1"/>
<path transform="translate(1203,984)" d="m0 0" fill="#BA8FD1"/>
<path transform="translate(1204,979)" d="m0 0" fill="#BA8FD1"/>
<path transform="translate(1197,978)" d="m0 0" fill="#BA8FD1"/>
<path transform="translate(1201,974)" d="m0 0" fill="#BA8FD1"/>
<path transform="translate(1230,973)" d="m0 0" fill="#BA8FD1"/>
<path transform="translate(1213,972)" d="m0 0" fill="#BA8FD1"/>
<path transform="translate(1232,968)" d="m0 0" fill="#BA8FD1"/>
<path transform="translate(1218,965)" d="m0 0" fill="#BA8FD1"/>
<path transform="translate(1215,965)" d="m0 0" fill="#BA8FD1"/>
<path transform="translate(1230,962)" d="m0 0" fill="#BA8FD1"/>
<path transform="translate(1221,961)" d="m0 0" fill="#BA8FD1"/>
<path transform="translate(1231,960)" d="m0 0" fill="#BA8FD1"/>
<path transform="translate(1213,959)" d="m0 0" fill="#BA8FD1"/>
<path transform="translate(1217,957)" d="m0 0" fill="#BA8FD1"/>
<path transform="translate(1218,956)" d="m0 0" fill="#BA8FD1"/>
<path transform="translate(1218,954)" d="m0 0" fill="#BA8FD1"/>
<path transform="translate(1229,948)" d="m0 0" fill="#BA8FD1"/>
<path transform="translate(1226,944)" d="m0 0" fill="#BA8FD1"/>
<path transform="translate(1226,939)" d="m0 0" fill="#BA8FD1"/>
<path transform="translate(1219,939)" d="m0 0" fill="#BA8FD1"/>
<path transform="translate(1221,938)" d="m0 0" fill="#BA8FD1"/>
<path transform="translate(1213,924)" d="m0 0" fill="#BA8FD1"/>
<path transform="translate(1212,920)" d="m0 0" fill="#BA8FD1"/>
<path transform="translate(1196,904)" d="m0 0" fill="#BA8FD1"/>
<path transform="translate(1177,887)" d="m0 0" fill="#BA8FD1"/>
<path transform="translate(1169,879)" d="m0 0" fill="#BA8FD1"/>
<path transform="translate(1165,875)" d="m0 0" fill="#BA8FD1"/>
<path transform="translate(1166,874)" d="m0 0" fill="#BA8FD1"/>
<path transform="translate(1161,871)" d="m0 0" fill="#BA8FD1"/>
<path transform="translate(1156,864)" d="m0 0" fill="#BA8FD1"/>
<path transform="translate(1146,864)" d="m0 0" fill="#BA8FD1"/>
<path transform="translate(1153,863)" d="m0 0" fill="#BA8FD1"/>
<path transform="translate(1142,845)" d="m0 0" fill="#BA8FD1"/>
<path transform="translate(1126,829)" d="m0 0" fill="#BA8FD1"/>
<path transform="translate(1114,825)" d="m0 0" fill="#BA8FD1"/>
<path transform="translate(1099,815)" d="m0 0" fill="#BA8FD1"/>
<path transform="translate(1102,813)" d="m0 0" fill="#BA8FD1"/>
<path transform="translate(1097,810)" d="m0 0" fill="#BA8FD1"/>
<path transform="translate(1106,805)" d="m0 0" fill="#BA8FD1"/>
<path transform="translate(1083,799)" d="m0 0" fill="#BA8FD1"/>
<path transform="translate(1094,797)" d="m0 0" fill="#BA8FD1"/>
<path transform="translate(1081,794)" d="m0 0" fill="#BA8FD1"/>
<path transform="translate(1083,793)" d="m0 0" fill="#BA8FD1"/>
<path transform="translate(1077,790)" d="m0 0" fill="#BA8FD1"/>
<path transform="translate(1090,789)" d="m0 0" fill="#BA8FD1"/>
<path transform="translate(1067,782)" d="m0 0" fill="#BA8FD1"/>
<path transform="translate(1066,769)" d="m0 0" fill="#BA8FD1"/>
<path transform="translate(1062,765)" d="m0 0" fill="#BA8FD1"/>
<path transform="translate(1045,758)" d="m0 0" fill="#BA8FD1"/>
<path transform="translate(1041,754)" d="m0 0" fill="#BA8FD1"/>
<path transform="translate(1033,746)" d="m0 0" fill="#BA8FD1"/>
<path transform="translate(1029,742)" d="m0 0" fill="#BA8FD1"/>
<path transform="translate(1009,722)" d="m0 0" fill="#BA8FD1"/>
<path transform="translate(1e3 718)" d="m0 0" fill="#BA8FD1"/>
<path transform="translate(991,703)" d="m0 0" fill="#BA8FD1"/>
<path transform="translate(998,701)" d="m0 0" fill="#BA8FD1"/>
<path transform="translate(994,697)" d="m0 0" fill="#BA8FD1"/>
<path transform="translate(977,690)" d="m0 0" fill="#BA8FD1"/>
<path transform="translate(957,670)" d="m0 0" fill="#BA8FD1"/>
<path transform="translate(970,669)" d="m0 0" fill="#BA8FD1"/>
<path transform="translate(953,666)" d="m0 0" fill="#BA8FD1"/>
<path transform="translate(947,663)" d="m0 0" fill="#BA8FD1"/>
<path transform="translate(945,658)" d="m0 0" fill="#BA8FD1"/>
<path transform="translate(941,654)" d="m0 0" fill="#BA8FD1"/>
<path transform="translate(954,653)" d="m0 0" fill="#BA8FD1"/>
<path transform="translate(937,650)" d="m0 0" fill="#BA8FD1"/>
<path transform="translate(929,642)" d="m0 0" fill="#BA8FD1"/>
<path transform="translate(925,638)" d="m0 0" fill="#BA8FD1"/>
<path transform="translate(926,625)" d="m0 0" fill="#BA8FD1"/>
<path transform="translate(909,622)" d="m0 0" fill="#BA8FD1"/>
<path transform="translate(905,618)" d="m0 0" fill="#BA8FD1"/>
<path transform="translate(910,609)" d="m0 0" fill="#BA8FD1"/>
<path transform="translate(902,601)" d="m0 0" fill="#BA8FD1"/>
<path transform="translate(879,595)" d="m0 0" fill="#BA8FD1"/>
<path transform="translate(877,590)" d="m0 0" fill="#BA8FD1"/>
<path transform="translate(873,586)" d="m0 0" fill="#BA8FD1"/>
<path transform="translate(866,569)" d="m0 0" fill="#BA8FD1"/>
<path transform="translate(862,565)" d="m0 0" fill="#BA8FD1"/>
<path transform="translate(845,558)" d="m0 0" fill="#BA8FD1"/>
<path transform="translate(841,554)" d="m0 0" fill="#BA8FD1"/>
<path transform="translate(833,546)" d="m0 0" fill="#BA8FD1"/>
<path transform="translate(819,535)" d="m0 0" fill="#BA8FD1"/>
<path transform="translate(834,533)" d="m0 0" fill="#BA8FD1"/>
<path transform="translate(817,530)" d="m0 0" fill="#BA8FD1"/>
<path transform="translate(813,526)" d="m0 0" fill="#BA8FD1"/>
<path transform="translate(806,517)" d="m0 0" fill="#BA8FD1"/>
<path transform="translate(788,499)" d="m0 0" fill="#BA8FD1"/>
<path transform="translate(1503,488)" d="m0 0" fill="#FEFEFE"/>
<path transform="translate(1499,484)" d="m0 0" fill="#FEFEFE"/>
<path transform="translate(1496,481)" d="m0 0" fill="#FEFEFE"/>
<path transform="translate(1495,480)" d="m0 0" fill="#FEFEFE"/>
<path transform="translate(1492,477)" d="m0 0" fill="#FEFEFE"/>
<path transform="translate(1491,476)" d="m0 0" fill="#FEFEFE"/>
<path transform="translate(1488,473)" d="m0 0" fill="#FEFEFE"/>
<path transform="translate(1487,472)" d="m0 0" fill="#FEFEFE"/>
<path transform="translate(1486,471)" d="m0 0" fill="#FEFEFE"/>
<path transform="translate(1485,470)" d="m0 0" fill="#FEFEFE"/>
<path transform="translate(1484,469)" d="m0 0" fill="#FEFEFE"/>
<path transform="translate(1483,468)" d="m0 0" fill="#FEFEFE"/>
<path transform="translate(1480,465)" d="m0 0" fill="#FEFEFE"/>
<path transform="translate(1479,464)" d="m0 0" fill="#FEFEFE"/>
<path transform="translate(1440,426)" d="m0 0" fill="#FEFEFE"/>
<path transform="translate(721,424)" d="m0 0" fill="#BA8FD1"/>
<path transform="translate(715,420)" d="m0 0" fill="#BA8FD1"/>
<path transform="translate(705,420)" d="m0 0" fill="#BA8FD1"/>
<path transform="translate(707,417)" d="m0 0" fill="#BA8FD1"/>
<path transform="translate(705,413)" d="m0 0" fill="#BA8FD1"/>
<path transform="translate(711,411)" d="m0 0" fill="#BA8FD1"/>
<path transform="translate(704,411)" d="m0 0" fill="#BA8FD1"/>
<path transform="translate(703,403)" d="m0 0" fill="#BA8FD1"/>
<path transform="translate(705,399)" d="m0 0" fill="#BA8FD1"/>
<path transform="translate(699,399)" d="m0 0" fill="#BA8FD1"/>
<path transform="translate(703,398)" d="m0 0" fill="#BA8FD1"/>
<path transform="translate(698,396)" d="m0 0" fill="#BA8FD1"/>
</svg>
